<mxfile host="app.diagrams.net" modified="2024-10-07T17:46:46.710Z" agent="Mozilla/5.0 (Macintosh; Intel Mac OS X 10_15_7) AppleWebKit/537.36 (KHTML, like Gecko) Chrome/129.0.0.0 Safari/537.36" etag="ocRVZNU4an77HzsQX0BX" version="24.6.4" type="github">
  <diagram name="Page-1" id="rQUseV5JDJWeQHO3ORI7">
    <mxGraphModel dx="1903" dy="1340" grid="1" gridSize="10" guides="1" tooltips="1" connect="1" arrows="1" fold="1" page="1" pageScale="1" pageWidth="1200" pageHeight="1600" math="0" shadow="0">
      <root>
        <mxCell id="0" />
        <mxCell id="1" parent="0" />
        <mxCell id="n-b-IPJBRChd2AI7p8b2-3" value="" style="edgeStyle=orthogonalEdgeStyle;rounded=0;orthogonalLoop=1;jettySize=auto;html=1;exitX=0.5;exitY=0;exitDx=0;exitDy=0;endArrow=none;endFill=0;" edge="1" parent="1" source="n-b-IPJBRChd2AI7p8b2-2">
          <mxGeometry relative="1" as="geometry">
            <mxPoint x="575" y="320" as="targetPoint" />
          </mxGeometry>
        </mxCell>
        <mxCell id="n-b-IPJBRChd2AI7p8b2-4" style="edgeStyle=orthogonalEdgeStyle;rounded=0;orthogonalLoop=1;jettySize=auto;html=1;endArrow=none;endFill=0;" edge="1" parent="1" source="n-b-IPJBRChd2AI7p8b2-2">
          <mxGeometry relative="1" as="geometry">
            <mxPoint x="575.0000000000002" y="720" as="targetPoint" />
          </mxGeometry>
        </mxCell>
        <mxCell id="n-b-IPJBRChd2AI7p8b2-2" value="&lt;font style=&quot;font-size: 23px;&quot;&gt;+&lt;/font&gt;&lt;div style=&quot;font-size: 23px;&quot;&gt;&lt;font style=&quot;font-size: 23px;&quot;&gt;-&lt;/font&gt;&lt;/div&gt;" style="ellipse;whiteSpace=wrap;html=1;aspect=fixed;" vertex="1" parent="1">
          <mxGeometry x="530" y="480" width="90" height="90" as="geometry" />
        </mxCell>
        <mxCell id="n-b-IPJBRChd2AI7p8b2-5" value="" style="endArrow=none;html=1;rounded=0;entryX=1;entryY=0;entryDx=0;entryDy=0;entryPerimeter=0;" edge="1" parent="1" target="n-b-IPJBRChd2AI7p8b2-12">
          <mxGeometry width="50" height="50" relative="1" as="geometry">
            <mxPoint x="575" y="320" as="sourcePoint" />
            <mxPoint x="980" y="320" as="targetPoint" />
            <Array as="points">
              <mxPoint x="780" y="320" />
              <mxPoint x="971" y="320" />
            </Array>
          </mxGeometry>
        </mxCell>
        <mxCell id="n-b-IPJBRChd2AI7p8b2-7" value="" style="edgeStyle=orthogonalEdgeStyle;rounded=0;orthogonalLoop=1;jettySize=auto;html=1;endArrow=none;endFill=0;" edge="1" parent="1">
          <mxGeometry relative="1" as="geometry">
            <mxPoint x="730" y="320" as="targetPoint" />
            <mxPoint x="730" y="516" as="sourcePoint" />
            <Array as="points">
              <mxPoint x="730" y="356" />
              <mxPoint x="730" y="356" />
            </Array>
          </mxGeometry>
        </mxCell>
        <mxCell id="n-b-IPJBRChd2AI7p8b2-8" value="" style="endArrow=none;html=1;rounded=0;" edge="1" parent="1">
          <mxGeometry width="50" height="50" relative="1" as="geometry">
            <mxPoint x="716" y="516" as="sourcePoint" />
            <mxPoint x="746" y="516" as="targetPoint" />
            <Array as="points">
              <mxPoint x="746" y="516" />
            </Array>
          </mxGeometry>
        </mxCell>
        <mxCell id="n-b-IPJBRChd2AI7p8b2-9" value="" style="endArrow=none;html=1;rounded=0;" edge="1" parent="1">
          <mxGeometry width="50" height="50" relative="1" as="geometry">
            <mxPoint x="716" y="524.9399999999999" as="sourcePoint" />
            <mxPoint x="746" y="524.9399999999999" as="targetPoint" />
            <Array as="points">
              <mxPoint x="746" y="524.9399999999999" />
            </Array>
          </mxGeometry>
        </mxCell>
        <mxCell id="n-b-IPJBRChd2AI7p8b2-10" value="" style="edgeStyle=orthogonalEdgeStyle;rounded=0;orthogonalLoop=1;jettySize=auto;html=1;endArrow=none;endFill=0;" edge="1" parent="1">
          <mxGeometry relative="1" as="geometry">
            <mxPoint x="730" y="525" as="targetPoint" />
            <mxPoint x="730" y="720" as="sourcePoint" />
            <Array as="points">
              <mxPoint x="730" y="535" />
              <mxPoint x="730" y="535" />
            </Array>
          </mxGeometry>
        </mxCell>
        <mxCell id="n-b-IPJBRChd2AI7p8b2-17" style="edgeStyle=orthogonalEdgeStyle;rounded=0;orthogonalLoop=1;jettySize=auto;html=1;exitX=1;exitY=0;exitDx=0;exitDy=0;exitPerimeter=0;endArrow=none;endFill=0;" edge="1" parent="1" source="n-b-IPJBRChd2AI7p8b2-11">
          <mxGeometry relative="1" as="geometry">
            <mxPoint x="864.090909090909" y="320" as="targetPoint" />
          </mxGeometry>
        </mxCell>
        <mxCell id="n-b-IPJBRChd2AI7p8b2-11" value="" style="verticalLabelPosition=bottom;shadow=0;dashed=0;align=center;html=1;verticalAlign=top;shape=mxgraph.electrical.transistors.pigbt;" vertex="1" parent="1">
          <mxGeometry x="800" y="360" width="64" height="100" as="geometry" />
        </mxCell>
        <mxCell id="n-b-IPJBRChd2AI7p8b2-12" value="" style="verticalLabelPosition=bottom;shadow=0;dashed=0;align=center;html=1;verticalAlign=top;shape=mxgraph.electrical.transistors.pigbt;" vertex="1" parent="1">
          <mxGeometry x="907" y="360" width="64" height="100" as="geometry" />
        </mxCell>
        <mxCell id="n-b-IPJBRChd2AI7p8b2-16" style="edgeStyle=orthogonalEdgeStyle;rounded=0;orthogonalLoop=1;jettySize=auto;html=1;exitX=1;exitY=1;exitDx=0;exitDy=0;exitPerimeter=0;endArrow=none;endFill=0;" edge="1" parent="1" source="n-b-IPJBRChd2AI7p8b2-13">
          <mxGeometry relative="1" as="geometry">
            <mxPoint x="864.090909090909" y="720" as="targetPoint" />
          </mxGeometry>
        </mxCell>
        <mxCell id="n-b-IPJBRChd2AI7p8b2-13" value="" style="verticalLabelPosition=bottom;shadow=0;dashed=0;align=center;html=1;verticalAlign=top;shape=mxgraph.electrical.transistors.pigbt;" vertex="1" parent="1">
          <mxGeometry x="800" y="550" width="64" height="100" as="geometry" />
        </mxCell>
        <mxCell id="n-b-IPJBRChd2AI7p8b2-19" style="edgeStyle=orthogonalEdgeStyle;rounded=0;orthogonalLoop=1;jettySize=auto;html=1;exitX=1;exitY=1;exitDx=0;exitDy=0;exitPerimeter=0;endArrow=none;endFill=0;" edge="1" parent="1">
          <mxGeometry relative="1" as="geometry">
            <mxPoint x="970.090909090909" y="720" as="targetPoint" />
            <mxPoint x="969.8181818181818" y="650" as="sourcePoint" />
          </mxGeometry>
        </mxCell>
        <mxCell id="n-b-IPJBRChd2AI7p8b2-14" value="" style="verticalLabelPosition=bottom;shadow=0;dashed=0;align=center;html=1;verticalAlign=top;shape=mxgraph.electrical.transistors.pigbt;" vertex="1" parent="1">
          <mxGeometry x="906" y="550" width="64" height="100" as="geometry" />
        </mxCell>
        <mxCell id="n-b-IPJBRChd2AI7p8b2-15" value="" style="endArrow=none;html=1;rounded=0;" edge="1" parent="1">
          <mxGeometry width="50" height="50" relative="1" as="geometry">
            <mxPoint x="575" y="720" as="sourcePoint" />
            <mxPoint x="970" y="720" as="targetPoint" />
          </mxGeometry>
        </mxCell>
        <mxCell id="n-b-IPJBRChd2AI7p8b2-20" style="edgeStyle=orthogonalEdgeStyle;rounded=0;orthogonalLoop=1;jettySize=auto;html=1;exitX=1;exitY=1;exitDx=0;exitDy=0;exitPerimeter=0;entryX=1;entryY=0;entryDx=0;entryDy=0;entryPerimeter=0;endArrow=none;endFill=0;" edge="1" parent="1" source="n-b-IPJBRChd2AI7p8b2-12" target="n-b-IPJBRChd2AI7p8b2-14">
          <mxGeometry relative="1" as="geometry">
            <Array as="points">
              <mxPoint x="971" y="505" />
              <mxPoint x="970" y="505" />
            </Array>
          </mxGeometry>
        </mxCell>
        <mxCell id="n-b-IPJBRChd2AI7p8b2-21" style="edgeStyle=orthogonalEdgeStyle;rounded=0;orthogonalLoop=1;jettySize=auto;html=1;exitX=1;exitY=1;exitDx=0;exitDy=0;exitPerimeter=0;entryX=1;entryY=0;entryDx=0;entryDy=0;entryPerimeter=0;endArrow=none;endFill=0;" edge="1" parent="1" source="n-b-IPJBRChd2AI7p8b2-11" target="n-b-IPJBRChd2AI7p8b2-13">
          <mxGeometry relative="1" as="geometry" />
        </mxCell>
        <mxCell id="n-b-IPJBRChd2AI7p8b2-25" style="edgeStyle=orthogonalEdgeStyle;rounded=0;orthogonalLoop=1;jettySize=auto;html=1;exitX=0;exitY=0.645;exitDx=0;exitDy=0;exitPerimeter=0;endArrow=none;endFill=0;" edge="1" parent="1">
          <mxGeometry relative="1" as="geometry">
            <mxPoint x="863" y="475.36363636363626" as="targetPoint" />
            <mxPoint x="1043" y="475.03" as="sourcePoint" />
          </mxGeometry>
        </mxCell>
        <mxCell id="n-b-IPJBRChd2AI7p8b2-30" style="edgeStyle=orthogonalEdgeStyle;rounded=0;orthogonalLoop=1;jettySize=auto;html=1;exitX=1;exitY=0.645;exitDx=0;exitDy=0;exitPerimeter=0;endArrow=none;endFill=0;" edge="1" parent="1">
          <mxGeometry relative="1" as="geometry">
            <mxPoint x="1140" y="519" as="targetPoint" />
            <mxPoint x="1140" y="484.03" as="sourcePoint" />
          </mxGeometry>
        </mxCell>
        <mxCell id="n-b-IPJBRChd2AI7p8b2-31" style="edgeStyle=orthogonalEdgeStyle;rounded=0;orthogonalLoop=1;jettySize=auto;html=1;exitX=1;exitY=0.645;exitDx=0;exitDy=0;exitPerimeter=0;endArrow=none;endFill=0;" edge="1" parent="1" source="n-b-IPJBRChd2AI7p8b2-24">
          <mxGeometry relative="1" as="geometry">
            <mxPoint x="1140.142857142857" y="490" as="targetPoint" />
          </mxGeometry>
        </mxCell>
        <mxCell id="n-b-IPJBRChd2AI7p8b2-24" value="" style="pointerEvents=1;verticalLabelPosition=bottom;shadow=0;dashed=0;align=center;html=1;verticalAlign=top;shape=mxgraph.electrical.inductors.inductor_5;" vertex="1" parent="1">
          <mxGeometry x="1040" y="466" width="100" height="14" as="geometry" />
        </mxCell>
        <mxCell id="n-b-IPJBRChd2AI7p8b2-27" value="" style="endArrow=none;html=1;rounded=0;" edge="1" parent="1">
          <mxGeometry width="50" height="50" relative="1" as="geometry">
            <mxPoint x="1127" y="520.5" as="sourcePoint" />
            <mxPoint x="1157" y="520.5" as="targetPoint" />
            <Array as="points">
              <mxPoint x="1157" y="520.5" />
            </Array>
          </mxGeometry>
        </mxCell>
        <mxCell id="n-b-IPJBRChd2AI7p8b2-28" value="" style="endArrow=none;html=1;rounded=0;" edge="1" parent="1">
          <mxGeometry width="50" height="50" relative="1" as="geometry">
            <mxPoint x="1127" y="529.4399999999999" as="sourcePoint" />
            <mxPoint x="1157" y="529.4399999999999" as="targetPoint" />
            <Array as="points">
              <mxPoint x="1157" y="529.4399999999999" />
            </Array>
          </mxGeometry>
        </mxCell>
        <mxCell id="n-b-IPJBRChd2AI7p8b2-29" value="" style="edgeStyle=orthogonalEdgeStyle;rounded=0;orthogonalLoop=1;jettySize=auto;html=1;endArrow=none;endFill=0;" edge="1" parent="1">
          <mxGeometry relative="1" as="geometry">
            <mxPoint x="1140" y="529.5" as="targetPoint" />
            <mxPoint x="1009" y="540" as="sourcePoint" />
            <Array as="points">
              <mxPoint x="1140" y="580" />
            </Array>
          </mxGeometry>
        </mxCell>
        <mxCell id="n-b-IPJBRChd2AI7p8b2-33" value="" style="edgeStyle=none;orthogonalLoop=1;jettySize=auto;html=1;rounded=0;endArrow=none;endFill=0;" edge="1" parent="1">
          <mxGeometry width="100" relative="1" as="geometry">
            <mxPoint x="970" y="540" as="sourcePoint" />
            <mxPoint x="1009" y="540" as="targetPoint" />
            <Array as="points" />
          </mxGeometry>
        </mxCell>
        <mxCell id="n-b-IPJBRChd2AI7p8b2-38" style="edgeStyle=orthogonalEdgeStyle;rounded=0;orthogonalLoop=1;jettySize=auto;html=1;exitX=1;exitY=0.5;exitDx=0;exitDy=0;exitPerimeter=0;endArrow=none;endFill=0;" edge="1" parent="1">
          <mxGeometry relative="1" as="geometry">
            <mxPoint x="1140" y="580.25" as="targetPoint" />
            <mxPoint x="1213.75" y="557.75" as="sourcePoint" />
            <Array as="points">
              <mxPoint x="1214" y="580" />
            </Array>
          </mxGeometry>
        </mxCell>
        <mxCell id="n-b-IPJBRChd2AI7p8b2-34" value="" style="pointerEvents=1;verticalLabelPosition=bottom;shadow=0;dashed=0;align=center;html=1;verticalAlign=top;shape=mxgraph.electrical.resistors.resistor_2;rotation=90;" vertex="1" parent="1">
          <mxGeometry x="1180" y="517.5" width="67.5" height="15" as="geometry" />
        </mxCell>
        <mxCell id="n-b-IPJBRChd2AI7p8b2-36" style="edgeStyle=orthogonalEdgeStyle;rounded=0;orthogonalLoop=1;jettySize=auto;html=1;exitX=0;exitY=0.5;exitDx=0;exitDy=0;exitPerimeter=0;entryX=1;entryY=0.645;entryDx=0;entryDy=0;entryPerimeter=0;endArrow=none;endFill=0;" edge="1" parent="1" source="n-b-IPJBRChd2AI7p8b2-34" target="n-b-IPJBRChd2AI7p8b2-24">
          <mxGeometry relative="1" as="geometry">
            <Array as="points">
              <mxPoint x="1214" y="475" />
            </Array>
          </mxGeometry>
        </mxCell>
        <mxCell id="n-b-IPJBRChd2AI7p8b2-40" style="edgeStyle=orthogonalEdgeStyle;rounded=0;orthogonalLoop=1;jettySize=auto;html=1;entryX=0;entryY=0.5;entryDx=0;entryDy=0;" edge="1" parent="1" source="n-b-IPJBRChd2AI7p8b2-39" target="n-b-IPJBRChd2AI7p8b2-41">
          <mxGeometry relative="1" as="geometry">
            <mxPoint x="1770" y="180" as="targetPoint" />
          </mxGeometry>
        </mxCell>
        <mxCell id="n-b-IPJBRChd2AI7p8b2-39" value="" style="verticalLabelPosition=bottom;shadow=0;dashed=0;align=center;html=1;verticalAlign=top;shape=mxgraph.electrical.abstract.multiplier;" vertex="1" parent="1">
          <mxGeometry x="1550" y="140" width="80" height="80" as="geometry" />
        </mxCell>
        <mxCell id="n-b-IPJBRChd2AI7p8b2-41" value="&lt;b&gt;&lt;font style=&quot;font-size: 19px;&quot;&gt;PI(s)&lt;/font&gt;&lt;/b&gt;" style="rounded=0;whiteSpace=wrap;html=1;" vertex="1" parent="1">
          <mxGeometry x="1720" y="150" width="100" height="60" as="geometry" />
        </mxCell>
        <mxCell id="n-b-IPJBRChd2AI7p8b2-42" value="" style="verticalLabelPosition=bottom;shadow=0;dashed=0;align=center;html=1;verticalAlign=top;shape=mxgraph.electrical.abstract.dac;" vertex="1" parent="1">
          <mxGeometry x="1350" y="180" width="90" height="56" as="geometry" />
        </mxCell>
        <mxCell id="n-b-IPJBRChd2AI7p8b2-44" value="" style="pointerEvents=1;verticalLabelPosition=bottom;shadow=0;dashed=0;align=center;html=1;verticalAlign=top;shape=mxgraph.electrical.signal_sources.source;aspect=fixed;points=[[0.5,0,0],[1,0.5,0],[0.5,1,0],[0,0.5,0]];elSignalType=ac;" vertex="1" parent="1">
          <mxGeometry x="1350" y="60" width="70" height="70" as="geometry" />
        </mxCell>
        <mxCell id="n-b-IPJBRChd2AI7p8b2-53" value="" style="edgeStyle=orthogonalEdgeStyle;rounded=0;orthogonalLoop=1;jettySize=auto;html=1;" edge="1" parent="1" source="n-b-IPJBRChd2AI7p8b2-45">
          <mxGeometry relative="1" as="geometry">
            <mxPoint x="2070" y="180" as="targetPoint" />
          </mxGeometry>
        </mxCell>
        <mxCell id="n-b-IPJBRChd2AI7p8b2-45" value="" style="verticalLabelPosition=bottom;shadow=0;dashed=0;align=center;html=1;verticalAlign=top;shape=mxgraph.electrical.abstract.multiplier;" vertex="1" parent="1">
          <mxGeometry x="1910" y="140" width="80" height="80" as="geometry" />
        </mxCell>
        <mxCell id="n-b-IPJBRChd2AI7p8b2-46" style="edgeStyle=orthogonalEdgeStyle;rounded=0;orthogonalLoop=1;jettySize=auto;html=1;exitX=1;exitY=0.5;exitDx=0;exitDy=0;entryX=0;entryY=0.5;entryDx=0;entryDy=0;entryPerimeter=0;" edge="1" parent="1" source="n-b-IPJBRChd2AI7p8b2-41" target="n-b-IPJBRChd2AI7p8b2-45">
          <mxGeometry relative="1" as="geometry" />
        </mxCell>
        <mxCell id="n-b-IPJBRChd2AI7p8b2-47" value="" style="verticalLabelPosition=bottom;shadow=0;dashed=0;align=center;html=1;verticalAlign=top;shape=mxgraph.electrical.abstract.dac;" vertex="1" parent="1">
          <mxGeometry x="1780" y="260" width="90" height="56" as="geometry" />
        </mxCell>
        <mxCell id="n-b-IPJBRChd2AI7p8b2-48" style="edgeStyle=orthogonalEdgeStyle;rounded=0;orthogonalLoop=1;jettySize=auto;html=1;entryX=0.5;entryY=1;entryDx=0;entryDy=0;entryPerimeter=0;" edge="1" parent="1" source="n-b-IPJBRChd2AI7p8b2-47" target="n-b-IPJBRChd2AI7p8b2-45">
          <mxGeometry relative="1" as="geometry" />
        </mxCell>
        <mxCell id="n-b-IPJBRChd2AI7p8b2-49" style="edgeStyle=orthogonalEdgeStyle;rounded=0;orthogonalLoop=1;jettySize=auto;html=1;exitX=1;exitY=0.5;exitDx=0;exitDy=0;exitPerimeter=0;entryX=0.5;entryY=1;entryDx=0;entryDy=0;entryPerimeter=0;" edge="1" parent="1" source="n-b-IPJBRChd2AI7p8b2-42" target="n-b-IPJBRChd2AI7p8b2-39">
          <mxGeometry relative="1" as="geometry">
            <Array as="points">
              <mxPoint x="1505" y="208" />
              <mxPoint x="1505" y="260" />
              <mxPoint x="1590" y="260" />
            </Array>
          </mxGeometry>
        </mxCell>
        <mxCell id="n-b-IPJBRChd2AI7p8b2-63" value="" style="edgeStyle=orthogonalEdgeStyle;rounded=0;orthogonalLoop=1;jettySize=auto;html=1;" edge="1" parent="1" source="n-b-IPJBRChd2AI7p8b2-54" target="n-b-IPJBRChd2AI7p8b2-62">
          <mxGeometry relative="1" as="geometry" />
        </mxCell>
        <mxCell id="n-b-IPJBRChd2AI7p8b2-54" value="&lt;b&gt;&lt;font style=&quot;font-size: 19px;&quot;&gt;PI(s)&lt;/font&gt;&lt;/b&gt;" style="whiteSpace=wrap;html=1;verticalAlign=top;shadow=0;dashed=0;" vertex="1" parent="1">
          <mxGeometry x="2070" y="150" width="100" height="60" as="geometry" />
        </mxCell>
        <mxCell id="n-b-IPJBRChd2AI7p8b2-57" value="" style="verticalLabelPosition=bottom;shadow=0;dashed=0;align=center;html=1;verticalAlign=top;shape=mxgraph.electrical.abstract.dac;" vertex="1" parent="1">
          <mxGeometry x="1780" y="40" width="90" height="56" as="geometry" />
        </mxCell>
        <mxCell id="n-b-IPJBRChd2AI7p8b2-58" style="edgeStyle=orthogonalEdgeStyle;rounded=0;orthogonalLoop=1;jettySize=auto;html=1;exitX=1;exitY=0.5;exitDx=0;exitDy=0;exitPerimeter=0;entryX=0.5;entryY=0;entryDx=0;entryDy=0;entryPerimeter=0;" edge="1" parent="1" source="n-b-IPJBRChd2AI7p8b2-57" target="n-b-IPJBRChd2AI7p8b2-45">
          <mxGeometry relative="1" as="geometry" />
        </mxCell>
        <mxCell id="n-b-IPJBRChd2AI7p8b2-61" value="" style="verticalLabelPosition=bottom;shadow=0;dashed=0;align=center;html=1;verticalAlign=top;shape=mxgraph.electrical.abstract.dac;" vertex="1" parent="1">
          <mxGeometry x="2110" y="280" width="90" height="56" as="geometry" />
        </mxCell>
        <mxCell id="n-b-IPJBRChd2AI7p8b2-69" value="" style="edgeStyle=orthogonalEdgeStyle;rounded=0;orthogonalLoop=1;jettySize=auto;html=1;" edge="1" parent="1" source="n-b-IPJBRChd2AI7p8b2-62" target="n-b-IPJBRChd2AI7p8b2-68">
          <mxGeometry relative="1" as="geometry" />
        </mxCell>
        <mxCell id="n-b-IPJBRChd2AI7p8b2-62" value="" style="verticalLabelPosition=bottom;shadow=0;dashed=0;align=center;html=1;verticalAlign=top;shape=mxgraph.electrical.abstract.multiplier;" vertex="1" parent="1">
          <mxGeometry x="2230" y="150" width="60" height="60" as="geometry" />
        </mxCell>
        <mxCell id="n-b-IPJBRChd2AI7p8b2-65" style="edgeStyle=orthogonalEdgeStyle;rounded=0;orthogonalLoop=1;jettySize=auto;html=1;entryX=0.5;entryY=1;entryDx=0;entryDy=0;entryPerimeter=0;" edge="1" parent="1" source="n-b-IPJBRChd2AI7p8b2-61" target="n-b-IPJBRChd2AI7p8b2-62">
          <mxGeometry relative="1" as="geometry" />
        </mxCell>
        <mxCell id="n-b-IPJBRChd2AI7p8b2-68" value="" style="whiteSpace=wrap;html=1;verticalAlign=top;shadow=0;dashed=0;" vertex="1" parent="1">
          <mxGeometry x="2380" y="140" width="180" height="80" as="geometry" />
        </mxCell>
        <mxCell id="n-b-IPJBRChd2AI7p8b2-70" style="edgeStyle=orthogonalEdgeStyle;rounded=0;orthogonalLoop=1;jettySize=auto;html=1;entryX=0.5;entryY=0;entryDx=0;entryDy=0;entryPerimeter=0;" edge="1" parent="1" source="n-b-IPJBRChd2AI7p8b2-44" target="n-b-IPJBRChd2AI7p8b2-39">
          <mxGeometry relative="1" as="geometry" />
        </mxCell>
        <mxCell id="n-b-IPJBRChd2AI7p8b2-71" value="&lt;b&gt;&lt;font style=&quot;font-size: 16px;&quot;&gt;+&lt;/font&gt;&lt;/b&gt;" style="text;html=1;align=center;verticalAlign=middle;resizable=0;points=[];autosize=1;strokeColor=none;fillColor=none;" vertex="1" parent="1">
          <mxGeometry x="1575" y="141" width="30" height="30" as="geometry" />
        </mxCell>
        <mxCell id="n-b-IPJBRChd2AI7p8b2-72" value="&lt;span style=&quot;font-size: 16px;&quot;&gt;&lt;b&gt;-&lt;/b&gt;&lt;/span&gt;" style="text;html=1;align=center;verticalAlign=middle;resizable=0;points=[];autosize=1;strokeColor=none;fillColor=none;" vertex="1" parent="1">
          <mxGeometry x="1575" y="180" width="30" height="30" as="geometry" />
        </mxCell>
        <mxCell id="n-b-IPJBRChd2AI7p8b2-73" value="&lt;b&gt;V Load&lt;/b&gt;" style="text;html=1;align=center;verticalAlign=middle;resizable=0;points=[];autosize=1;strokeColor=none;fillColor=none;" vertex="1" parent="1">
          <mxGeometry x="1355" y="193" width="60" height="30" as="geometry" />
        </mxCell>
        <mxCell id="n-b-IPJBRChd2AI7p8b2-74" value="&lt;b&gt;I Load&lt;/b&gt;" style="text;html=1;align=center;verticalAlign=middle;resizable=0;points=[];autosize=1;strokeColor=none;fillColor=none;" vertex="1" parent="1">
          <mxGeometry x="1790" y="273" width="60" height="30" as="geometry" />
        </mxCell>
        <mxCell id="n-b-IPJBRChd2AI7p8b2-75" value="&lt;b&gt;&lt;font style=&quot;font-size: 16px;&quot;&gt;+&lt;/font&gt;&lt;/b&gt;" style="text;html=1;align=center;verticalAlign=middle;resizable=0;points=[];autosize=1;strokeColor=none;fillColor=none;" vertex="1" parent="1">
          <mxGeometry x="1935" y="183" width="30" height="30" as="geometry" />
        </mxCell>
        <mxCell id="n-b-IPJBRChd2AI7p8b2-76" value="&lt;b&gt;&lt;font style=&quot;font-size: 16px;&quot;&gt;-&lt;/font&gt;&lt;/b&gt;" style="text;html=1;align=center;verticalAlign=middle;resizable=0;points=[];autosize=1;strokeColor=none;fillColor=none;" vertex="1" parent="1">
          <mxGeometry x="1936" y="142" width="30" height="30" as="geometry" />
        </mxCell>
        <mxCell id="n-b-IPJBRChd2AI7p8b2-77" value="&lt;b&gt;&lt;font style=&quot;font-size: 16px;&quot;&gt;+&lt;/font&gt;&lt;/b&gt;" style="text;html=1;align=center;verticalAlign=middle;resizable=0;points=[];autosize=1;strokeColor=none;fillColor=none;" vertex="1" parent="1">
          <mxGeometry x="1912" y="163" width="30" height="30" as="geometry" />
        </mxCell>
        <mxCell id="n-b-IPJBRChd2AI7p8b2-79" value="&lt;b&gt;I Inverter&lt;/b&gt;" style="text;html=1;align=center;verticalAlign=middle;resizable=0;points=[];autosize=1;strokeColor=none;fillColor=none;" vertex="1" parent="1">
          <mxGeometry x="1785" y="53" width="70" height="30" as="geometry" />
        </mxCell>
        <mxCell id="n-b-IPJBRChd2AI7p8b2-81" value="&lt;b&gt;V Load&lt;/b&gt;" style="text;html=1;align=center;verticalAlign=middle;resizable=0;points=[];autosize=1;strokeColor=none;fillColor=none;" vertex="1" parent="1">
          <mxGeometry x="2120" y="293" width="60" height="30" as="geometry" />
        </mxCell>
        <mxCell id="n-b-IPJBRChd2AI7p8b2-82" value="&lt;b&gt;&lt;font style=&quot;font-size: 14px;&quot;&gt;+&lt;/font&gt;&lt;/b&gt;" style="text;html=1;align=center;verticalAlign=middle;resizable=0;points=[];autosize=1;strokeColor=none;fillColor=none;" vertex="1" parent="1">
          <mxGeometry x="2245" y="180" width="30" height="30" as="geometry" />
        </mxCell>
        <mxCell id="n-b-IPJBRChd2AI7p8b2-83" value="&lt;b&gt;&lt;font style=&quot;font-size: 14px;&quot;&gt;+&lt;/font&gt;&lt;/b&gt;" style="text;html=1;align=center;verticalAlign=middle;resizable=0;points=[];autosize=1;strokeColor=none;fillColor=none;" vertex="1" parent="1">
          <mxGeometry x="2230" y="165" width="30" height="30" as="geometry" />
        </mxCell>
        <mxCell id="n-b-IPJBRChd2AI7p8b2-84" value="&lt;b style=&quot;font-size: 14px;&quot;&gt;&lt;font style=&quot;font-size: 14px;&quot;&gt;PWM Generation&lt;/font&gt;&lt;/b&gt;&lt;div style=&quot;font-size: 14px;&quot;&gt;&lt;b style=&quot;&quot;&gt;&lt;font style=&quot;font-size: 14px;&quot;&gt;Block&lt;/font&gt;&lt;/b&gt;&lt;/div&gt;" style="text;html=1;align=center;verticalAlign=middle;resizable=0;points=[];autosize=1;strokeColor=none;fillColor=none;" vertex="1" parent="1">
          <mxGeometry x="2400" y="155" width="140" height="50" as="geometry" />
        </mxCell>
        <mxCell id="n-b-IPJBRChd2AI7p8b2-85" value="" style="edgeStyle=orthogonalEdgeStyle;rounded=0;orthogonalLoop=1;jettySize=auto;html=1;exitX=0.5;exitY=0;exitDx=0;exitDy=0;endArrow=none;endFill=0;" edge="1" parent="1">
          <mxGeometry relative="1" as="geometry">
            <mxPoint x="1410" y="894" as="targetPoint" />
            <mxPoint x="1410" y="1054" as="sourcePoint" />
          </mxGeometry>
        </mxCell>
        <mxCell id="n-b-IPJBRChd2AI7p8b2-86" style="edgeStyle=orthogonalEdgeStyle;rounded=0;orthogonalLoop=1;jettySize=auto;html=1;endArrow=none;endFill=0;" edge="1" parent="1">
          <mxGeometry relative="1" as="geometry">
            <mxPoint x="1415.0000000000002" y="1294" as="targetPoint" />
            <mxPoint x="1415" y="1144" as="sourcePoint" />
          </mxGeometry>
        </mxCell>
        <mxCell id="n-b-IPJBRChd2AI7p8b2-87" value="" style="endArrow=none;html=1;rounded=0;" edge="1" parent="1">
          <mxGeometry width="50" height="50" relative="1" as="geometry">
            <mxPoint x="1410" y="894" as="sourcePoint" />
            <mxPoint x="1810" y="894" as="targetPoint" />
          </mxGeometry>
        </mxCell>
        <mxCell id="n-b-IPJBRChd2AI7p8b2-88" value="" style="edgeStyle=orthogonalEdgeStyle;rounded=0;orthogonalLoop=1;jettySize=auto;html=1;endArrow=none;endFill=0;" edge="1" parent="1">
          <mxGeometry relative="1" as="geometry">
            <mxPoint x="1565" y="890" as="targetPoint" />
            <mxPoint x="1565" y="1090" as="sourcePoint" />
            <Array as="points">
              <mxPoint x="1565" y="930" />
              <mxPoint x="1565" y="930" />
            </Array>
          </mxGeometry>
        </mxCell>
        <mxCell id="n-b-IPJBRChd2AI7p8b2-89" value="" style="endArrow=none;html=1;rounded=0;" edge="1" parent="1">
          <mxGeometry width="50" height="50" relative="1" as="geometry">
            <mxPoint x="1551" y="1090" as="sourcePoint" />
            <mxPoint x="1581" y="1090" as="targetPoint" />
            <Array as="points">
              <mxPoint x="1581" y="1090" />
            </Array>
          </mxGeometry>
        </mxCell>
        <mxCell id="n-b-IPJBRChd2AI7p8b2-90" value="" style="endArrow=none;html=1;rounded=0;" edge="1" parent="1">
          <mxGeometry width="50" height="50" relative="1" as="geometry">
            <mxPoint x="1551" y="1098.94" as="sourcePoint" />
            <mxPoint x="1581" y="1098.94" as="targetPoint" />
            <Array as="points">
              <mxPoint x="1581" y="1098.94" />
            </Array>
          </mxGeometry>
        </mxCell>
        <mxCell id="n-b-IPJBRChd2AI7p8b2-91" value="" style="edgeStyle=orthogonalEdgeStyle;rounded=0;orthogonalLoop=1;jettySize=auto;html=1;endArrow=none;endFill=0;" edge="1" parent="1">
          <mxGeometry relative="1" as="geometry">
            <mxPoint x="1565" y="1099" as="targetPoint" />
            <mxPoint x="1565" y="1299" as="sourcePoint" />
            <Array as="points">
              <mxPoint x="1565" y="1109" />
              <mxPoint x="1565" y="1109" />
            </Array>
          </mxGeometry>
        </mxCell>
        <mxCell id="n-b-IPJBRChd2AI7p8b2-92" style="edgeStyle=orthogonalEdgeStyle;rounded=0;orthogonalLoop=1;jettySize=auto;html=1;exitX=1;exitY=0;exitDx=0;exitDy=0;exitPerimeter=0;endArrow=none;endFill=0;" edge="1" parent="1" source="n-b-IPJBRChd2AI7p8b2-93">
          <mxGeometry relative="1" as="geometry">
            <mxPoint x="1699.090909090909" y="894" as="targetPoint" />
          </mxGeometry>
        </mxCell>
        <mxCell id="n-b-IPJBRChd2AI7p8b2-93" value="" style="verticalLabelPosition=bottom;shadow=0;dashed=0;align=center;html=1;verticalAlign=top;shape=mxgraph.electrical.transistors.pigbt;" vertex="1" parent="1">
          <mxGeometry x="1635" y="934" width="64" height="100" as="geometry" />
        </mxCell>
        <mxCell id="n-b-IPJBRChd2AI7p8b2-94" style="edgeStyle=orthogonalEdgeStyle;rounded=0;orthogonalLoop=1;jettySize=auto;html=1;exitX=1;exitY=0;exitDx=0;exitDy=0;exitPerimeter=0;endArrow=none;endFill=0;" edge="1" parent="1" source="n-b-IPJBRChd2AI7p8b2-95">
          <mxGeometry relative="1" as="geometry">
            <mxPoint x="1809.090909090909" y="894" as="targetPoint" />
          </mxGeometry>
        </mxCell>
        <mxCell id="n-b-IPJBRChd2AI7p8b2-95" value="" style="verticalLabelPosition=bottom;shadow=0;dashed=0;align=center;html=1;verticalAlign=top;shape=mxgraph.electrical.transistors.pigbt;" vertex="1" parent="1">
          <mxGeometry x="1745" y="934" width="64" height="100" as="geometry" />
        </mxCell>
        <mxCell id="n-b-IPJBRChd2AI7p8b2-96" style="edgeStyle=orthogonalEdgeStyle;rounded=0;orthogonalLoop=1;jettySize=auto;html=1;exitX=1;exitY=1;exitDx=0;exitDy=0;exitPerimeter=0;endArrow=none;endFill=0;" edge="1" parent="1" source="n-b-IPJBRChd2AI7p8b2-97">
          <mxGeometry relative="1" as="geometry">
            <mxPoint x="1699.090909090909" y="1294" as="targetPoint" />
          </mxGeometry>
        </mxCell>
        <mxCell id="n-b-IPJBRChd2AI7p8b2-97" value="" style="verticalLabelPosition=bottom;shadow=0;dashed=0;align=center;html=1;verticalAlign=top;shape=mxgraph.electrical.transistors.pigbt;" vertex="1" parent="1">
          <mxGeometry x="1635" y="1124" width="64" height="100" as="geometry" />
        </mxCell>
        <mxCell id="n-b-IPJBRChd2AI7p8b2-98" style="edgeStyle=orthogonalEdgeStyle;rounded=0;orthogonalLoop=1;jettySize=auto;html=1;exitX=1;exitY=1;exitDx=0;exitDy=0;exitPerimeter=0;endArrow=none;endFill=0;" edge="1" parent="1" source="n-b-IPJBRChd2AI7p8b2-99">
          <mxGeometry relative="1" as="geometry">
            <mxPoint x="1809.090909090909" y="1294" as="targetPoint" />
          </mxGeometry>
        </mxCell>
        <mxCell id="n-b-IPJBRChd2AI7p8b2-99" value="" style="verticalLabelPosition=bottom;shadow=0;dashed=0;align=center;html=1;verticalAlign=top;shape=mxgraph.electrical.transistors.pigbt;" vertex="1" parent="1">
          <mxGeometry x="1745" y="1124" width="64" height="100" as="geometry" />
        </mxCell>
        <mxCell id="n-b-IPJBRChd2AI7p8b2-100" value="" style="endArrow=none;html=1;rounded=0;" edge="1" parent="1">
          <mxGeometry width="50" height="50" relative="1" as="geometry">
            <mxPoint x="1415" y="1294" as="sourcePoint" />
            <mxPoint x="1810" y="1294" as="targetPoint" />
          </mxGeometry>
        </mxCell>
        <mxCell id="n-b-IPJBRChd2AI7p8b2-101" style="edgeStyle=orthogonalEdgeStyle;rounded=0;orthogonalLoop=1;jettySize=auto;html=1;exitX=1;exitY=1;exitDx=0;exitDy=0;exitPerimeter=0;entryX=1;entryY=0;entryDx=0;entryDy=0;entryPerimeter=0;endArrow=none;endFill=0;" edge="1" parent="1" source="n-b-IPJBRChd2AI7p8b2-95" target="n-b-IPJBRChd2AI7p8b2-99">
          <mxGeometry relative="1" as="geometry" />
        </mxCell>
        <mxCell id="n-b-IPJBRChd2AI7p8b2-102" style="edgeStyle=orthogonalEdgeStyle;rounded=0;orthogonalLoop=1;jettySize=auto;html=1;exitX=1;exitY=1;exitDx=0;exitDy=0;exitPerimeter=0;entryX=1;entryY=0;entryDx=0;entryDy=0;entryPerimeter=0;endArrow=none;endFill=0;" edge="1" parent="1" source="n-b-IPJBRChd2AI7p8b2-93" target="n-b-IPJBRChd2AI7p8b2-97">
          <mxGeometry relative="1" as="geometry" />
        </mxCell>
        <mxCell id="n-b-IPJBRChd2AI7p8b2-103" style="edgeStyle=orthogonalEdgeStyle;rounded=0;orthogonalLoop=1;jettySize=auto;html=1;exitX=0;exitY=0.645;exitDx=0;exitDy=0;exitPerimeter=0;endArrow=none;endFill=0;" edge="1" parent="1">
          <mxGeometry relative="1" as="geometry">
            <mxPoint x="1698" y="1049.3636363636363" as="targetPoint" />
            <mxPoint x="1878" y="1049.03" as="sourcePoint" />
          </mxGeometry>
        </mxCell>
        <mxCell id="n-b-IPJBRChd2AI7p8b2-104" value="" style="pointerEvents=1;verticalLabelPosition=bottom;shadow=0;dashed=0;align=center;html=1;verticalAlign=top;shape=mxgraph.electrical.inductors.inductor_5;" vertex="1" parent="1">
          <mxGeometry x="1875" y="1040" width="100" height="14" as="geometry" />
        </mxCell>
        <mxCell id="n-b-IPJBRChd2AI7p8b2-105" value="" style="edgeStyle=orthogonalEdgeStyle;rounded=0;orthogonalLoop=1;jettySize=auto;html=1;endArrow=none;endFill=0;" edge="1" parent="1">
          <mxGeometry relative="1" as="geometry">
            <mxPoint x="1975" y="1103.5" as="targetPoint" />
            <mxPoint x="1844" y="1114" as="sourcePoint" />
            <Array as="points">
              <mxPoint x="1844" y="1160" />
              <mxPoint x="1975" y="1160" />
            </Array>
          </mxGeometry>
        </mxCell>
        <mxCell id="n-b-IPJBRChd2AI7p8b2-106" value="" style="edgeStyle=none;orthogonalLoop=1;jettySize=auto;html=1;rounded=0;endArrow=none;endFill=0;" edge="1" parent="1">
          <mxGeometry width="100" relative="1" as="geometry">
            <mxPoint x="1809" y="1114" as="sourcePoint" />
            <mxPoint x="1845" y="1114" as="targetPoint" />
            <Array as="points" />
          </mxGeometry>
        </mxCell>
        <mxCell id="n-b-IPJBRChd2AI7p8b2-107" value="&lt;font style=&quot;font-size: 23px;&quot;&gt;+&lt;/font&gt;&lt;div style=&quot;font-size: 23px;&quot;&gt;&lt;font style=&quot;font-size: 23px;&quot;&gt;-&lt;/font&gt;&lt;/div&gt;" style="ellipse;whiteSpace=wrap;html=1;aspect=fixed;" vertex="1" parent="1">
          <mxGeometry x="1368" y="1055" width="90" height="90" as="geometry" />
        </mxCell>
        <mxCell id="n-b-IPJBRChd2AI7p8b2-118" style="edgeStyle=orthogonalEdgeStyle;rounded=0;orthogonalLoop=1;jettySize=auto;html=1;endArrow=none;endFill=0;" edge="1" parent="1">
          <mxGeometry relative="1" as="geometry">
            <mxPoint x="1975" y="1091.97" as="targetPoint" />
            <mxPoint x="1975" y="1048" as="sourcePoint" />
          </mxGeometry>
        </mxCell>
        <mxCell id="n-b-IPJBRChd2AI7p8b2-119" value="" style="endArrow=none;html=1;rounded=0;" edge="1" parent="1">
          <mxGeometry width="50" height="50" relative="1" as="geometry">
            <mxPoint x="1961" y="1092.47" as="sourcePoint" />
            <mxPoint x="1991" y="1092.47" as="targetPoint" />
            <Array as="points">
              <mxPoint x="1991" y="1092.47" />
            </Array>
          </mxGeometry>
        </mxCell>
        <mxCell id="n-b-IPJBRChd2AI7p8b2-120" value="" style="endArrow=none;html=1;rounded=0;" edge="1" parent="1">
          <mxGeometry width="50" height="50" relative="1" as="geometry">
            <mxPoint x="1961" y="1103.4099999999999" as="sourcePoint" />
            <mxPoint x="1991" y="1103.4099999999999" as="targetPoint" />
            <Array as="points">
              <mxPoint x="1991" y="1103.4099999999999" />
            </Array>
          </mxGeometry>
        </mxCell>
        <mxCell id="n-b-IPJBRChd2AI7p8b2-121" value="" style="pointerEvents=1;verticalLabelPosition=bottom;shadow=0;dashed=0;align=center;html=1;verticalAlign=top;shape=mxgraph.electrical.inductors.inductor_5;" vertex="1" parent="1">
          <mxGeometry x="1975" y="1043" width="100" height="10" as="geometry" />
        </mxCell>
        <mxCell id="n-b-IPJBRChd2AI7p8b2-129" style="edgeStyle=orthogonalEdgeStyle;rounded=0;orthogonalLoop=1;jettySize=auto;html=1;endArrow=none;endFill=0;" edge="1" parent="1" source="n-b-IPJBRChd2AI7p8b2-122">
          <mxGeometry relative="1" as="geometry">
            <mxPoint x="1970" y="1160" as="targetPoint" />
            <Array as="points">
              <mxPoint x="2098" y="1160" />
            </Array>
          </mxGeometry>
        </mxCell>
        <mxCell id="n-b-IPJBRChd2AI7p8b2-122" value="" style="pointerEvents=1;verticalLabelPosition=bottom;shadow=0;dashed=0;align=center;html=1;verticalAlign=top;shape=mxgraph.electrical.signal_sources.source;aspect=fixed;points=[[0.5,0,0],[1,0.5,0],[0.5,1,0],[0,0.5,0]];elSignalType=ac;" vertex="1" parent="1">
          <mxGeometry x="2070" y="1080" width="55" height="55" as="geometry" />
        </mxCell>
        <mxCell id="n-b-IPJBRChd2AI7p8b2-126" style="edgeStyle=orthogonalEdgeStyle;rounded=0;orthogonalLoop=1;jettySize=auto;html=1;entryX=1;entryY=0.645;entryDx=0;entryDy=0;entryPerimeter=0;endArrow=none;endFill=0;" edge="1" parent="1" source="n-b-IPJBRChd2AI7p8b2-122" target="n-b-IPJBRChd2AI7p8b2-121">
          <mxGeometry relative="1" as="geometry" />
        </mxCell>
        <mxCell id="n-b-IPJBRChd2AI7p8b2-134" value="" style="edgeStyle=orthogonalEdgeStyle;rounded=0;orthogonalLoop=1;jettySize=auto;html=1;" edge="1" parent="1" source="n-b-IPJBRChd2AI7p8b2-132" target="n-b-IPJBRChd2AI7p8b2-133">
          <mxGeometry relative="1" as="geometry" />
        </mxCell>
        <mxCell id="n-b-IPJBRChd2AI7p8b2-132" value="" style="verticalLabelPosition=bottom;shadow=0;dashed=0;align=center;html=1;verticalAlign=top;shape=mxgraph.electrical.abstract.multiplier;" vertex="1" parent="1">
          <mxGeometry x="300" y="1490" width="80" height="80" as="geometry" />
        </mxCell>
        <mxCell id="n-b-IPJBRChd2AI7p8b2-136" value="" style="edgeStyle=orthogonalEdgeStyle;rounded=0;orthogonalLoop=1;jettySize=auto;html=1;" edge="1" parent="1" source="n-b-IPJBRChd2AI7p8b2-133" target="n-b-IPJBRChd2AI7p8b2-135">
          <mxGeometry relative="1" as="geometry" />
        </mxCell>
        <mxCell id="n-b-IPJBRChd2AI7p8b2-133" value="" style="whiteSpace=wrap;html=1;verticalAlign=top;shadow=0;dashed=0;" vertex="1" parent="1">
          <mxGeometry x="460" y="1500" width="120" height="60" as="geometry" />
        </mxCell>
        <mxCell id="n-b-IPJBRChd2AI7p8b2-138" value="" style="edgeStyle=orthogonalEdgeStyle;rounded=0;orthogonalLoop=1;jettySize=auto;html=1;" edge="1" parent="1" source="n-b-IPJBRChd2AI7p8b2-135">
          <mxGeometry relative="1" as="geometry">
            <mxPoint x="980" y="1530" as="targetPoint" />
          </mxGeometry>
        </mxCell>
        <mxCell id="n-b-IPJBRChd2AI7p8b2-139" style="edgeStyle=orthogonalEdgeStyle;rounded=0;orthogonalLoop=1;jettySize=auto;html=1;entryX=0.5;entryY=1;entryDx=0;entryDy=0;entryPerimeter=0;" edge="1" parent="1" target="n-b-IPJBRChd2AI7p8b2-132">
          <mxGeometry relative="1" as="geometry">
            <mxPoint x="529.9999999999998" y="1560" as="targetPoint" />
            <mxPoint x="770" y="1530" as="sourcePoint" />
            <Array as="points">
              <mxPoint x="770" y="1554" />
              <mxPoint x="770" y="1680" />
              <mxPoint x="340" y="1680" />
            </Array>
          </mxGeometry>
        </mxCell>
        <mxCell id="n-b-IPJBRChd2AI7p8b2-135" value="" style="whiteSpace=wrap;html=1;verticalAlign=top;shadow=0;dashed=0;" vertex="1" parent="1">
          <mxGeometry x="635" y="1500" width="100" height="60" as="geometry" />
        </mxCell>
        <mxCell id="n-b-IPJBRChd2AI7p8b2-141" value="" style="edgeStyle=orthogonalEdgeStyle;rounded=0;orthogonalLoop=1;jettySize=auto;html=1;" edge="1" parent="1" source="n-b-IPJBRChd2AI7p8b2-140" target="n-b-IPJBRChd2AI7p8b2-132">
          <mxGeometry relative="1" as="geometry" />
        </mxCell>
        <mxCell id="n-b-IPJBRChd2AI7p8b2-140" value="" style="verticalLabelPosition=bottom;shadow=0;dashed=0;align=center;html=1;verticalAlign=top;shape=mxgraph.electrical.abstract.dac;" vertex="1" parent="1">
          <mxGeometry x="130" y="1502" width="90" height="56" as="geometry" />
        </mxCell>
        <mxCell id="n-b-IPJBRChd2AI7p8b2-142" value="&lt;b&gt;V inverter&amp;nbsp;&lt;/b&gt;" style="text;html=1;align=center;verticalAlign=middle;resizable=0;points=[];autosize=1;strokeColor=none;fillColor=none;" vertex="1" parent="1">
          <mxGeometry x="130" y="1515" width="80" height="30" as="geometry" />
        </mxCell>
        <mxCell id="n-b-IPJBRChd2AI7p8b2-143" value="&lt;b&gt;&lt;font style=&quot;font-size: 14px;&quot;&gt;+&lt;/font&gt;&lt;/b&gt;" style="text;html=1;align=center;verticalAlign=middle;resizable=0;points=[];autosize=1;strokeColor=none;fillColor=none;" vertex="1" parent="1">
          <mxGeometry x="300" y="1515" width="30" height="30" as="geometry" />
        </mxCell>
        <mxCell id="n-b-IPJBRChd2AI7p8b2-144" value="&lt;b&gt;&lt;font style=&quot;font-size: 14px;&quot;&gt;-&lt;/font&gt;&lt;/b&gt;" style="text;html=1;align=center;verticalAlign=middle;resizable=0;points=[];autosize=1;strokeColor=none;fillColor=none;" vertex="1" parent="1">
          <mxGeometry x="325" y="1537" width="30" height="30" as="geometry" />
        </mxCell>
        <mxCell id="n-b-IPJBRChd2AI7p8b2-145" value="&lt;b&gt;&lt;font style=&quot;font-size: 14px;&quot;&gt;Loop filter&lt;/font&gt;&lt;/b&gt;" style="text;html=1;align=center;verticalAlign=middle;resizable=0;points=[];autosize=1;strokeColor=none;fillColor=none;" vertex="1" parent="1">
          <mxGeometry x="475" y="1515" width="90" height="30" as="geometry" />
        </mxCell>
        <mxCell id="n-b-IPJBRChd2AI7p8b2-146" value="&lt;b&gt;&lt;font style=&quot;font-size: 14px;&quot;&gt;VCO&lt;/font&gt;&lt;/b&gt;" style="text;html=1;align=center;verticalAlign=middle;resizable=0;points=[];autosize=1;strokeColor=none;fillColor=none;" vertex="1" parent="1">
          <mxGeometry x="660" y="1515" width="50" height="30" as="geometry" />
        </mxCell>
        <mxCell id="n-b-IPJBRChd2AI7p8b2-148" value="" style="whiteSpace=wrap;html=1;verticalAlign=top;shadow=0;dashed=0;" vertex="1" parent="1">
          <mxGeometry x="810" y="1506" width="130" height="48" as="geometry" />
        </mxCell>
        <mxCell id="n-b-IPJBRChd2AI7p8b2-149" value="&lt;b&gt;PWM generation&lt;/b&gt;&lt;div&gt;&lt;b&gt;Block&lt;/b&gt;&lt;/div&gt;" style="text;html=1;align=center;verticalAlign=middle;resizable=0;points=[];autosize=1;strokeColor=none;fillColor=none;" vertex="1" parent="1">
          <mxGeometry x="815" y="1514" width="120" height="40" as="geometry" />
        </mxCell>
        <mxCell id="n-b-IPJBRChd2AI7p8b2-150" value="&lt;b&gt;Phase Comparator&lt;/b&gt;" style="text;html=1;align=center;verticalAlign=middle;resizable=0;points=[];autosize=1;strokeColor=none;fillColor=none;" vertex="1" parent="1">
          <mxGeometry x="275" y="1450" width="130" height="30" as="geometry" />
        </mxCell>
        <mxCell id="n-b-IPJBRChd2AI7p8b2-151" value="" style="edgeStyle=orthogonalEdgeStyle;rounded=0;orthogonalLoop=1;jettySize=auto;html=1;exitX=0.5;exitY=0;exitDx=0;exitDy=0;endArrow=none;endFill=0;" edge="1" parent="1">
          <mxGeometry relative="1" as="geometry">
            <mxPoint x="2102" y="1850" as="targetPoint" />
            <mxPoint x="2102" y="2010" as="sourcePoint" />
          </mxGeometry>
        </mxCell>
        <mxCell id="n-b-IPJBRChd2AI7p8b2-152" style="edgeStyle=orthogonalEdgeStyle;rounded=0;orthogonalLoop=1;jettySize=auto;html=1;endArrow=none;endFill=0;" edge="1" parent="1">
          <mxGeometry relative="1" as="geometry">
            <mxPoint x="2107" y="2250" as="targetPoint" />
            <mxPoint x="2107" y="2100" as="sourcePoint" />
          </mxGeometry>
        </mxCell>
        <mxCell id="n-b-IPJBRChd2AI7p8b2-153" value="" style="endArrow=none;html=1;rounded=0;" edge="1" parent="1">
          <mxGeometry width="50" height="50" relative="1" as="geometry">
            <mxPoint x="2102" y="1850" as="sourcePoint" />
            <mxPoint x="2507" y="1850" as="targetPoint" />
          </mxGeometry>
        </mxCell>
        <mxCell id="n-b-IPJBRChd2AI7p8b2-154" value="" style="edgeStyle=orthogonalEdgeStyle;rounded=0;orthogonalLoop=1;jettySize=auto;html=1;endArrow=none;endFill=0;" edge="1" parent="1">
          <mxGeometry relative="1" as="geometry">
            <mxPoint x="2194" y="1850" as="targetPoint" />
            <mxPoint x="2194" y="2050" as="sourcePoint" />
            <Array as="points">
              <mxPoint x="2194" y="1890" />
              <mxPoint x="2194" y="1890" />
            </Array>
          </mxGeometry>
        </mxCell>
        <mxCell id="n-b-IPJBRChd2AI7p8b2-155" value="" style="endArrow=none;html=1;rounded=0;" edge="1" parent="1">
          <mxGeometry width="50" height="50" relative="1" as="geometry">
            <mxPoint x="2180" y="2051" as="sourcePoint" />
            <mxPoint x="2210" y="2051" as="targetPoint" />
            <Array as="points">
              <mxPoint x="2210" y="2051" />
            </Array>
          </mxGeometry>
        </mxCell>
        <mxCell id="n-b-IPJBRChd2AI7p8b2-156" value="" style="endArrow=none;html=1;rounded=0;" edge="1" parent="1">
          <mxGeometry width="50" height="50" relative="1" as="geometry">
            <mxPoint x="2180" y="2057.94" as="sourcePoint" />
            <mxPoint x="2210" y="2057.94" as="targetPoint" />
            <Array as="points">
              <mxPoint x="2210" y="2057.94" />
            </Array>
          </mxGeometry>
        </mxCell>
        <mxCell id="n-b-IPJBRChd2AI7p8b2-157" value="" style="edgeStyle=orthogonalEdgeStyle;rounded=0;orthogonalLoop=1;jettySize=auto;html=1;endArrow=none;endFill=0;" edge="1" parent="1">
          <mxGeometry relative="1" as="geometry">
            <mxPoint x="2194" y="2058" as="targetPoint" />
            <mxPoint x="2197" y="2250" as="sourcePoint" />
            <Array as="points">
              <mxPoint x="2194" y="2068" />
              <mxPoint x="2194" y="2068" />
            </Array>
          </mxGeometry>
        </mxCell>
        <mxCell id="n-b-IPJBRChd2AI7p8b2-158" style="edgeStyle=orthogonalEdgeStyle;rounded=0;orthogonalLoop=1;jettySize=auto;html=1;exitX=1;exitY=0;exitDx=0;exitDy=0;exitPerimeter=0;endArrow=none;endFill=0;" edge="1" parent="1" source="n-b-IPJBRChd2AI7p8b2-159">
          <mxGeometry relative="1" as="geometry">
            <mxPoint x="2391.090909090909" y="1850" as="targetPoint" />
          </mxGeometry>
        </mxCell>
        <mxCell id="n-b-IPJBRChd2AI7p8b2-159" value="" style="verticalLabelPosition=bottom;shadow=0;dashed=0;align=center;html=1;verticalAlign=top;shape=mxgraph.electrical.transistors.pigbt;" vertex="1" parent="1">
          <mxGeometry x="2327" y="1890" width="64" height="100" as="geometry" />
        </mxCell>
        <mxCell id="n-b-IPJBRChd2AI7p8b2-160" style="edgeStyle=orthogonalEdgeStyle;rounded=0;orthogonalLoop=1;jettySize=auto;html=1;exitX=1;exitY=0;exitDx=0;exitDy=0;exitPerimeter=0;endArrow=none;endFill=0;" edge="1" parent="1">
          <mxGeometry relative="1" as="geometry">
            <mxPoint x="2506.090909090909" y="1850" as="targetPoint" />
            <mxPoint x="2505.8181818181815" y="1890" as="sourcePoint" />
          </mxGeometry>
        </mxCell>
        <mxCell id="n-b-IPJBRChd2AI7p8b2-161" value="" style="verticalLabelPosition=bottom;shadow=0;dashed=0;align=center;html=1;verticalAlign=top;shape=mxgraph.electrical.transistors.pigbt;" vertex="1" parent="1">
          <mxGeometry x="2442" y="1890" width="64" height="100" as="geometry" />
        </mxCell>
        <mxCell id="n-b-IPJBRChd2AI7p8b2-162" style="edgeStyle=orthogonalEdgeStyle;rounded=0;orthogonalLoop=1;jettySize=auto;html=1;exitX=1;exitY=1;exitDx=0;exitDy=0;exitPerimeter=0;endArrow=none;endFill=0;" edge="1" parent="1" source="n-b-IPJBRChd2AI7p8b2-163">
          <mxGeometry relative="1" as="geometry">
            <mxPoint x="2391.090909090909" y="2250" as="targetPoint" />
          </mxGeometry>
        </mxCell>
        <mxCell id="n-b-IPJBRChd2AI7p8b2-163" value="" style="verticalLabelPosition=bottom;shadow=0;dashed=0;align=center;html=1;verticalAlign=top;shape=mxgraph.electrical.transistors.pigbt;" vertex="1" parent="1">
          <mxGeometry x="2327" y="2080" width="64" height="100" as="geometry" />
        </mxCell>
        <mxCell id="n-b-IPJBRChd2AI7p8b2-164" style="edgeStyle=orthogonalEdgeStyle;rounded=0;orthogonalLoop=1;jettySize=auto;html=1;exitX=1;exitY=1;exitDx=0;exitDy=0;exitPerimeter=0;endArrow=none;endFill=0;" edge="1" parent="1" source="n-b-IPJBRChd2AI7p8b2-165">
          <mxGeometry relative="1" as="geometry">
            <mxPoint x="2501.090909090909" y="2250" as="targetPoint" />
            <Array as="points">
              <mxPoint x="2506" y="2250" />
            </Array>
          </mxGeometry>
        </mxCell>
        <mxCell id="n-b-IPJBRChd2AI7p8b2-165" value="" style="verticalLabelPosition=bottom;shadow=0;dashed=0;align=center;html=1;verticalAlign=top;shape=mxgraph.electrical.transistors.pigbt;" vertex="1" parent="1">
          <mxGeometry x="2442" y="2080" width="64" height="100" as="geometry" />
        </mxCell>
        <mxCell id="n-b-IPJBRChd2AI7p8b2-166" value="" style="endArrow=none;html=1;rounded=0;" edge="1" parent="1">
          <mxGeometry width="50" height="50" relative="1" as="geometry">
            <mxPoint x="2107" y="2250" as="sourcePoint" />
            <mxPoint x="2502" y="2250" as="targetPoint" />
          </mxGeometry>
        </mxCell>
        <mxCell id="n-b-IPJBRChd2AI7p8b2-167" style="edgeStyle=orthogonalEdgeStyle;rounded=0;orthogonalLoop=1;jettySize=auto;html=1;exitX=1;exitY=1;exitDx=0;exitDy=0;exitPerimeter=0;entryX=1;entryY=0;entryDx=0;entryDy=0;entryPerimeter=0;endArrow=none;endFill=0;" edge="1" parent="1" source="n-b-IPJBRChd2AI7p8b2-161" target="n-b-IPJBRChd2AI7p8b2-165">
          <mxGeometry relative="1" as="geometry">
            <Array as="points">
              <mxPoint x="2506" y="2080" />
            </Array>
          </mxGeometry>
        </mxCell>
        <mxCell id="n-b-IPJBRChd2AI7p8b2-168" style="edgeStyle=orthogonalEdgeStyle;rounded=0;orthogonalLoop=1;jettySize=auto;html=1;exitX=1;exitY=1;exitDx=0;exitDy=0;exitPerimeter=0;entryX=1;entryY=0;entryDx=0;entryDy=0;entryPerimeter=0;endArrow=none;endFill=0;" edge="1" parent="1" source="n-b-IPJBRChd2AI7p8b2-159" target="n-b-IPJBRChd2AI7p8b2-163">
          <mxGeometry relative="1" as="geometry" />
        </mxCell>
        <mxCell id="n-b-IPJBRChd2AI7p8b2-169" style="edgeStyle=orthogonalEdgeStyle;rounded=0;orthogonalLoop=1;jettySize=auto;html=1;exitX=0;exitY=0.645;exitDx=0;exitDy=0;exitPerimeter=0;endArrow=none;endFill=0;" edge="1" parent="1">
          <mxGeometry relative="1" as="geometry">
            <mxPoint x="2276" y="2030" as="targetPoint" />
            <mxPoint x="2576" y="2005.03" as="sourcePoint" />
          </mxGeometry>
        </mxCell>
        <mxCell id="n-b-IPJBRChd2AI7p8b2-211" style="edgeStyle=orthogonalEdgeStyle;rounded=0;orthogonalLoop=1;jettySize=auto;html=1;exitX=1;exitY=0.645;exitDx=0;exitDy=0;exitPerimeter=0;endArrow=none;endFill=0;entryX=0;entryY=0.645;entryDx=0;entryDy=0;entryPerimeter=0;" edge="1" parent="1" source="n-b-IPJBRChd2AI7p8b2-170" target="n-b-IPJBRChd2AI7p8b2-177">
          <mxGeometry relative="1" as="geometry">
            <Array as="points">
              <mxPoint x="2700" y="2005" />
            </Array>
          </mxGeometry>
        </mxCell>
        <mxCell id="n-b-IPJBRChd2AI7p8b2-170" value="" style="pointerEvents=1;verticalLabelPosition=bottom;shadow=0;dashed=0;align=center;html=1;verticalAlign=top;shape=mxgraph.electrical.inductors.inductor_5;" vertex="1" parent="1">
          <mxGeometry x="2567" y="1996" width="93" height="14" as="geometry" />
        </mxCell>
        <mxCell id="n-b-IPJBRChd2AI7p8b2-172" value="" style="edgeStyle=none;orthogonalLoop=1;jettySize=auto;html=1;rounded=0;endArrow=none;endFill=0;entryX=0;entryY=0.645;entryDx=0;entryDy=0;entryPerimeter=0;" edge="1" parent="1" target="n-b-IPJBRChd2AI7p8b2-205">
          <mxGeometry width="100" relative="1" as="geometry">
            <mxPoint x="2505" y="2070" as="sourcePoint" />
            <mxPoint x="2541" y="2070" as="targetPoint" />
            <Array as="points" />
          </mxGeometry>
        </mxCell>
        <mxCell id="n-b-IPJBRChd2AI7p8b2-173" value="&lt;font style=&quot;font-size: 23px;&quot;&gt;+&lt;/font&gt;&lt;div style=&quot;font-size: 23px;&quot;&gt;&lt;font style=&quot;font-size: 23px;&quot;&gt;-&lt;/font&gt;&lt;/div&gt;" style="ellipse;whiteSpace=wrap;html=1;aspect=fixed;" vertex="1" parent="1">
          <mxGeometry x="2060" y="2011" width="90" height="90" as="geometry" />
        </mxCell>
        <mxCell id="n-b-IPJBRChd2AI7p8b2-177" value="" style="pointerEvents=1;verticalLabelPosition=bottom;shadow=0;dashed=0;align=center;html=1;verticalAlign=top;shape=mxgraph.electrical.inductors.inductor_5;" vertex="1" parent="1">
          <mxGeometry x="2710" y="1999" width="57" height="10" as="geometry" />
        </mxCell>
        <mxCell id="n-b-IPJBRChd2AI7p8b2-179" value="" style="pointerEvents=1;verticalLabelPosition=bottom;shadow=0;dashed=0;align=center;html=1;verticalAlign=top;shape=mxgraph.electrical.signal_sources.source;aspect=fixed;points=[[0.5,0,0],[1,0.5,0],[0.5,1,0],[0,0.5,0]];elSignalType=ac;" vertex="1" parent="1">
          <mxGeometry x="2890" y="2028.5" width="55" height="55" as="geometry" />
        </mxCell>
        <mxCell id="n-b-IPJBRChd2AI7p8b2-180" style="edgeStyle=orthogonalEdgeStyle;rounded=0;orthogonalLoop=1;jettySize=auto;html=1;entryX=1;entryY=0.645;entryDx=0;entryDy=0;entryPerimeter=0;endArrow=none;endFill=0;" edge="1" parent="1" source="n-b-IPJBRChd2AI7p8b2-179" target="n-b-IPJBRChd2AI7p8b2-177">
          <mxGeometry relative="1" as="geometry">
            <Array as="points">
              <mxPoint x="2920" y="2064" />
              <mxPoint x="2920" y="2006" />
            </Array>
          </mxGeometry>
        </mxCell>
        <mxCell id="n-b-IPJBRChd2AI7p8b2-182" style="edgeStyle=orthogonalEdgeStyle;rounded=0;orthogonalLoop=1;jettySize=auto;html=1;exitX=1;exitY=0;exitDx=0;exitDy=0;exitPerimeter=0;endArrow=none;endFill=0;" edge="1" parent="1" source="n-b-IPJBRChd2AI7p8b2-183">
          <mxGeometry relative="1" as="geometry">
            <mxPoint x="2276.680909090909" y="1850" as="targetPoint" />
          </mxGeometry>
        </mxCell>
        <mxCell id="n-b-IPJBRChd2AI7p8b2-183" value="" style="verticalLabelPosition=bottom;shadow=0;dashed=0;align=center;html=1;verticalAlign=top;shape=mxgraph.electrical.transistors.pigbt;" vertex="1" parent="1">
          <mxGeometry x="2212.59" y="1890" width="64" height="100" as="geometry" />
        </mxCell>
        <mxCell id="n-b-IPJBRChd2AI7p8b2-184" style="edgeStyle=orthogonalEdgeStyle;rounded=0;orthogonalLoop=1;jettySize=auto;html=1;exitX=1;exitY=1;exitDx=0;exitDy=0;exitPerimeter=0;endArrow=none;endFill=0;" edge="1" parent="1" source="n-b-IPJBRChd2AI7p8b2-185">
          <mxGeometry relative="1" as="geometry">
            <mxPoint x="2276.680909090909" y="2250" as="targetPoint" />
          </mxGeometry>
        </mxCell>
        <mxCell id="n-b-IPJBRChd2AI7p8b2-185" value="" style="verticalLabelPosition=bottom;shadow=0;dashed=0;align=center;html=1;verticalAlign=top;shape=mxgraph.electrical.transistors.pigbt;" vertex="1" parent="1">
          <mxGeometry x="2212.59" y="2080" width="64" height="100" as="geometry" />
        </mxCell>
        <mxCell id="n-b-IPJBRChd2AI7p8b2-186" style="edgeStyle=orthogonalEdgeStyle;rounded=0;orthogonalLoop=1;jettySize=auto;html=1;exitX=1;exitY=1;exitDx=0;exitDy=0;exitPerimeter=0;entryX=1;entryY=0;entryDx=0;entryDy=0;entryPerimeter=0;endArrow=none;endFill=0;" edge="1" parent="1" source="n-b-IPJBRChd2AI7p8b2-183" target="n-b-IPJBRChd2AI7p8b2-185">
          <mxGeometry relative="1" as="geometry" />
        </mxCell>
        <mxCell id="n-b-IPJBRChd2AI7p8b2-194" value="" style="verticalLabelPosition=bottom;shadow=0;dashed=0;align=center;html=1;verticalAlign=top;shape=mxgraph.electrical.logic_gates.inverting_contact;" vertex="1" parent="1">
          <mxGeometry x="2350" y="1980" width="10" height="10" as="geometry" />
        </mxCell>
        <mxCell id="n-b-IPJBRChd2AI7p8b2-196" value="" style="shape=waypoint;sketch=0;size=6;pointerEvents=1;points=[];fillColor=none;resizable=0;rotatable=0;perimeter=centerPerimeter;snapToPoint=1;" vertex="1" parent="1">
          <mxGeometry x="2267" y="1995" width="20" height="20" as="geometry" />
        </mxCell>
        <mxCell id="n-b-IPJBRChd2AI7p8b2-197" value="" style="shape=waypoint;sketch=0;size=6;pointerEvents=1;points=[];fillColor=none;resizable=0;rotatable=0;perimeter=centerPerimeter;snapToPoint=1;" vertex="1" parent="1">
          <mxGeometry x="2381" y="2048" width="20" height="20" as="geometry" />
        </mxCell>
        <mxCell id="n-b-IPJBRChd2AI7p8b2-198" value="" style="shape=waypoint;sketch=0;size=6;pointerEvents=1;points=[];fillColor=none;resizable=0;rotatable=0;perimeter=centerPerimeter;snapToPoint=1;" vertex="1" parent="1">
          <mxGeometry x="2496" y="2060" width="20" height="20" as="geometry" />
        </mxCell>
        <mxCell id="n-b-IPJBRChd2AI7p8b2-235" value="" style="edgeStyle=orthogonalEdgeStyle;rounded=0;orthogonalLoop=1;jettySize=auto;html=1;endArrow=none;endFill=0;" edge="1" parent="1">
          <mxGeometry relative="1" as="geometry">
            <mxPoint x="2680" y="2056.9999999999995" as="sourcePoint" />
            <mxPoint x="2710.5" y="2057.37037037037" as="targetPoint" />
          </mxGeometry>
        </mxCell>
        <mxCell id="n-b-IPJBRChd2AI7p8b2-200" value="" style="pointerEvents=1;verticalLabelPosition=bottom;shadow=0;dashed=0;align=center;html=1;verticalAlign=top;shape=mxgraph.electrical.inductors.inductor_5;" vertex="1" parent="1">
          <mxGeometry x="2580" y="2048" width="100" height="14" as="geometry" />
        </mxCell>
        <mxCell id="n-b-IPJBRChd2AI7p8b2-201" value="" style="pointerEvents=1;verticalLabelPosition=bottom;shadow=0;dashed=0;align=center;html=1;verticalAlign=top;shape=mxgraph.electrical.inductors.inductor_5;" vertex="1" parent="1">
          <mxGeometry x="2710.5" y="2050.67" width="56" height="9.33" as="geometry" />
        </mxCell>
        <mxCell id="n-b-IPJBRChd2AI7p8b2-236" value="" style="edgeStyle=orthogonalEdgeStyle;rounded=0;orthogonalLoop=1;jettySize=auto;html=1;endArrow=none;endFill=0;entryX=0.045;entryY=0.627;entryDx=0;entryDy=0;entryPerimeter=0;" edge="1" parent="1" target="n-b-IPJBRChd2AI7p8b2-206">
          <mxGeometry relative="1" as="geometry">
            <mxPoint x="2666" y="2110.037037037037" as="sourcePoint" />
            <mxPoint x="2714.0000000000005" y="2108.037037037037" as="targetPoint" />
            <Array as="points">
              <mxPoint x="2714" y="2110" />
            </Array>
          </mxGeometry>
        </mxCell>
        <mxCell id="n-b-IPJBRChd2AI7p8b2-205" value="" style="pointerEvents=1;verticalLabelPosition=bottom;shadow=0;dashed=0;align=center;html=1;verticalAlign=top;shape=mxgraph.electrical.inductors.inductor_5;" vertex="1" parent="1">
          <mxGeometry x="2566" y="2101" width="100" height="14" as="geometry" />
        </mxCell>
        <mxCell id="n-b-IPJBRChd2AI7p8b2-206" value="" style="pointerEvents=1;verticalLabelPosition=bottom;shadow=0;dashed=0;align=center;html=1;verticalAlign=top;shape=mxgraph.electrical.inductors.inductor_5;" vertex="1" parent="1">
          <mxGeometry x="2715" y="2103" width="52" height="10" as="geometry" />
        </mxCell>
        <mxCell id="n-b-IPJBRChd2AI7p8b2-209" style="edgeStyle=orthogonalEdgeStyle;rounded=0;orthogonalLoop=1;jettySize=auto;html=1;exitX=1;exitY=0.645;exitDx=0;exitDy=0;exitPerimeter=0;entryX=0.5;entryY=1;entryDx=0;entryDy=0;entryPerimeter=0;endArrow=none;endFill=0;" edge="1" parent="1" source="n-b-IPJBRChd2AI7p8b2-206" target="n-b-IPJBRChd2AI7p8b2-179">
          <mxGeometry relative="1" as="geometry" />
        </mxCell>
        <mxCell id="n-b-IPJBRChd2AI7p8b2-214" style="edgeStyle=orthogonalEdgeStyle;rounded=0;orthogonalLoop=1;jettySize=auto;html=1;exitX=1;exitY=0.645;exitDx=0;exitDy=0;exitPerimeter=0;entryX=0;entryY=0.5;entryDx=0;entryDy=0;entryPerimeter=0;endArrow=none;endFill=0;" edge="1" parent="1" source="n-b-IPJBRChd2AI7p8b2-201" target="n-b-IPJBRChd2AI7p8b2-179">
          <mxGeometry relative="1" as="geometry" />
        </mxCell>
        <mxCell id="n-b-IPJBRChd2AI7p8b2-234" style="edgeStyle=orthogonalEdgeStyle;rounded=0;orthogonalLoop=1;jettySize=auto;html=1;exitX=0;exitY=0.645;exitDx=0;exitDy=0;exitPerimeter=0;entryX=0.988;entryY=0.418;entryDx=0;entryDy=0;entryPerimeter=0;endArrow=none;endFill=0;" edge="1" parent="1">
          <mxGeometry relative="1" as="geometry">
            <mxPoint x="2580" y="2057.5299999999997" as="sourcePoint" />
            <mxPoint x="2391" y="2058.5" as="targetPoint" />
            <Array as="points">
              <mxPoint x="2490" y="2058.5" />
            </Array>
          </mxGeometry>
        </mxCell>
        <mxCell id="n-b-IPJBRChd2AI7p8b2-244" style="edgeStyle=orthogonalEdgeStyle;rounded=0;orthogonalLoop=1;jettySize=auto;html=1;exitX=0.5;exitY=1;exitDx=0;exitDy=0;endArrow=none;endFill=0;" edge="1" parent="1" source="n-b-IPJBRChd2AI7p8b2-238">
          <mxGeometry relative="1" as="geometry">
            <mxPoint x="2665.3333333333335" y="2160" as="targetPoint" />
          </mxGeometry>
        </mxCell>
        <mxCell id="n-b-IPJBRChd2AI7p8b2-238" value="" style="verticalLabelPosition=bottom;shadow=0;dashed=0;align=center;html=1;verticalAlign=top;shape=mxgraph.electrical.transmission.testPoint;" vertex="1" parent="1">
          <mxGeometry x="2660" y="1999" width="10" height="40" as="geometry" />
        </mxCell>
        <mxCell id="n-b-IPJBRChd2AI7p8b2-239" value="" style="verticalLabelPosition=bottom;shadow=0;dashed=0;align=center;html=1;verticalAlign=top;shape=mxgraph.electrical.transmission.testPoint;" vertex="1" parent="1">
          <mxGeometry x="2690" y="2050.67" width="10" height="109.33" as="geometry" />
        </mxCell>
        <mxCell id="n-b-IPJBRChd2AI7p8b2-242" value="" style="verticalLabelPosition=bottom;shadow=0;dashed=0;align=center;html=1;verticalAlign=top;shape=mxgraph.electrical.transmission.testPoint;" vertex="1" parent="1">
          <mxGeometry x="2710.5" y="2105" width="10" height="55" as="geometry" />
        </mxCell>
        <mxCell id="n-b-IPJBRChd2AI7p8b2-246" style="edgeStyle=orthogonalEdgeStyle;rounded=0;orthogonalLoop=1;jettySize=auto;html=1;exitX=1;exitY=0.645;exitDx=0;exitDy=0;exitPerimeter=0;endArrow=none;endFill=0;" edge="1" parent="1">
          <mxGeometry relative="1" as="geometry">
            <mxPoint x="2665" y="2158.9700000000003" as="targetPoint" />
            <mxPoint x="2665" y="2124" as="sourcePoint" />
          </mxGeometry>
        </mxCell>
        <mxCell id="n-b-IPJBRChd2AI7p8b2-247" value="" style="endArrow=none;html=1;rounded=0;" edge="1" parent="1">
          <mxGeometry width="50" height="50" relative="1" as="geometry">
            <mxPoint x="2651" y="2159.4700000000003" as="sourcePoint" />
            <mxPoint x="2681" y="2159.4700000000003" as="targetPoint" />
            <Array as="points">
              <mxPoint x="2681" y="2159.4700000000003" />
            </Array>
          </mxGeometry>
        </mxCell>
        <mxCell id="n-b-IPJBRChd2AI7p8b2-248" value="" style="endArrow=none;html=1;rounded=0;" edge="1" parent="1">
          <mxGeometry width="50" height="50" relative="1" as="geometry">
            <mxPoint x="2651" y="2168.41" as="sourcePoint" />
            <mxPoint x="2681" y="2168.41" as="targetPoint" />
            <Array as="points">
              <mxPoint x="2681" y="2168.41" />
            </Array>
          </mxGeometry>
        </mxCell>
        <mxCell id="n-b-IPJBRChd2AI7p8b2-249" style="edgeStyle=orthogonalEdgeStyle;rounded=0;orthogonalLoop=1;jettySize=auto;html=1;exitX=1;exitY=0.645;exitDx=0;exitDy=0;exitPerimeter=0;endArrow=none;endFill=0;" edge="1" parent="1">
          <mxGeometry relative="1" as="geometry">
            <mxPoint x="2695" y="2183.9700000000003" as="targetPoint" />
            <mxPoint x="2695" y="2149" as="sourcePoint" />
          </mxGeometry>
        </mxCell>
        <mxCell id="n-b-IPJBRChd2AI7p8b2-250" value="" style="endArrow=none;html=1;rounded=0;" edge="1" parent="1">
          <mxGeometry width="50" height="50" relative="1" as="geometry">
            <mxPoint x="2681" y="2184.4700000000003" as="sourcePoint" />
            <mxPoint x="2711" y="2184.4700000000003" as="targetPoint" />
            <Array as="points">
              <mxPoint x="2711" y="2184.4700000000003" />
            </Array>
          </mxGeometry>
        </mxCell>
        <mxCell id="n-b-IPJBRChd2AI7p8b2-251" value="" style="endArrow=none;html=1;rounded=0;" edge="1" parent="1">
          <mxGeometry width="50" height="50" relative="1" as="geometry">
            <mxPoint x="2681" y="2193.41" as="sourcePoint" />
            <mxPoint x="2711" y="2193.41" as="targetPoint" />
            <Array as="points">
              <mxPoint x="2711" y="2193.41" />
            </Array>
          </mxGeometry>
        </mxCell>
        <mxCell id="n-b-IPJBRChd2AI7p8b2-252" style="edgeStyle=orthogonalEdgeStyle;rounded=0;orthogonalLoop=1;jettySize=auto;html=1;exitX=0.5;exitY=1;exitDx=0;exitDy=0;endArrow=none;endFill=0;" edge="1" parent="1" source="n-b-IPJBRChd2AI7p8b2-242">
          <mxGeometry relative="1" as="geometry">
            <mxPoint x="2715" y="2215.9700000000003" as="targetPoint" />
            <mxPoint x="2715" y="2181" as="sourcePoint" />
          </mxGeometry>
        </mxCell>
        <mxCell id="n-b-IPJBRChd2AI7p8b2-253" value="" style="endArrow=none;html=1;rounded=0;" edge="1" parent="1">
          <mxGeometry width="50" height="50" relative="1" as="geometry">
            <mxPoint x="2701" y="2216.4700000000003" as="sourcePoint" />
            <mxPoint x="2731" y="2216.4700000000003" as="targetPoint" />
            <Array as="points">
              <mxPoint x="2731" y="2216.4700000000003" />
            </Array>
          </mxGeometry>
        </mxCell>
        <mxCell id="n-b-IPJBRChd2AI7p8b2-254" value="" style="endArrow=none;html=1;rounded=0;" edge="1" parent="1">
          <mxGeometry width="50" height="50" relative="1" as="geometry">
            <mxPoint x="2701" y="2225.41" as="sourcePoint" />
            <mxPoint x="2731" y="2225.41" as="targetPoint" />
            <Array as="points">
              <mxPoint x="2731" y="2225.41" />
            </Array>
          </mxGeometry>
        </mxCell>
        <mxCell id="n-b-IPJBRChd2AI7p8b2-255" style="edgeStyle=orthogonalEdgeStyle;rounded=0;orthogonalLoop=1;jettySize=auto;html=1;endArrow=none;endFill=0;" edge="1" parent="1">
          <mxGeometry relative="1" as="geometry">
            <mxPoint x="2665" y="2280" as="targetPoint" />
            <mxPoint x="2665" y="2169" as="sourcePoint" />
          </mxGeometry>
        </mxCell>
        <mxCell id="n-b-IPJBRChd2AI7p8b2-256" style="edgeStyle=orthogonalEdgeStyle;rounded=0;orthogonalLoop=1;jettySize=auto;html=1;endArrow=none;endFill=0;" edge="1" parent="1">
          <mxGeometry relative="1" as="geometry">
            <mxPoint x="2695" y="2280" as="targetPoint" />
            <mxPoint x="2695" y="2194" as="sourcePoint" />
          </mxGeometry>
        </mxCell>
        <mxCell id="n-b-IPJBRChd2AI7p8b2-257" style="edgeStyle=orthogonalEdgeStyle;rounded=0;orthogonalLoop=1;jettySize=auto;html=1;endArrow=none;endFill=0;" edge="1" parent="1">
          <mxGeometry relative="1" as="geometry">
            <mxPoint x="2715" y="2279.9700000000003" as="targetPoint" />
            <mxPoint x="2715" y="2225" as="sourcePoint" />
          </mxGeometry>
        </mxCell>
        <mxCell id="n-b-IPJBRChd2AI7p8b2-260" value="" style="endArrow=none;html=1;strokeWidth=1;rounded=0;" edge="1" parent="1">
          <mxGeometry width="100" relative="1" as="geometry">
            <mxPoint x="2665" y="2280" as="sourcePoint" />
            <mxPoint x="2715" y="2280" as="targetPoint" />
          </mxGeometry>
        </mxCell>
        <mxCell id="n-b-IPJBRChd2AI7p8b2-261" value="" style="edgeStyle=orthogonalEdgeStyle;rounded=0;orthogonalLoop=1;jettySize=auto;html=1;exitX=0.5;exitY=0;exitDx=0;exitDy=0;endArrow=none;endFill=0;" edge="1" parent="1">
          <mxGeometry relative="1" as="geometry">
            <mxPoint x="2392" y="2610" as="targetPoint" />
            <mxPoint x="2392" y="2770" as="sourcePoint" />
          </mxGeometry>
        </mxCell>
        <mxCell id="n-b-IPJBRChd2AI7p8b2-262" style="edgeStyle=orthogonalEdgeStyle;rounded=0;orthogonalLoop=1;jettySize=auto;html=1;endArrow=none;endFill=0;" edge="1" parent="1">
          <mxGeometry relative="1" as="geometry">
            <mxPoint x="2397" y="3010" as="targetPoint" />
            <mxPoint x="2397" y="2860" as="sourcePoint" />
          </mxGeometry>
        </mxCell>
        <mxCell id="n-b-IPJBRChd2AI7p8b2-263" value="" style="endArrow=none;html=1;rounded=0;" edge="1" parent="1">
          <mxGeometry width="50" height="50" relative="1" as="geometry">
            <mxPoint x="2392" y="2610" as="sourcePoint" />
            <mxPoint x="2797" y="2610" as="targetPoint" />
          </mxGeometry>
        </mxCell>
        <mxCell id="n-b-IPJBRChd2AI7p8b2-264" value="" style="edgeStyle=orthogonalEdgeStyle;rounded=0;orthogonalLoop=1;jettySize=auto;html=1;endArrow=none;endFill=0;" edge="1" parent="1">
          <mxGeometry relative="1" as="geometry">
            <mxPoint x="2484" y="2610" as="targetPoint" />
            <mxPoint x="2484" y="2810" as="sourcePoint" />
            <Array as="points">
              <mxPoint x="2484" y="2650" />
              <mxPoint x="2484" y="2650" />
            </Array>
          </mxGeometry>
        </mxCell>
        <mxCell id="n-b-IPJBRChd2AI7p8b2-265" value="" style="endArrow=none;html=1;rounded=0;" edge="1" parent="1">
          <mxGeometry width="50" height="50" relative="1" as="geometry">
            <mxPoint x="2470" y="2811" as="sourcePoint" />
            <mxPoint x="2500" y="2811" as="targetPoint" />
            <Array as="points">
              <mxPoint x="2500" y="2811" />
            </Array>
          </mxGeometry>
        </mxCell>
        <mxCell id="n-b-IPJBRChd2AI7p8b2-266" value="" style="endArrow=none;html=1;rounded=0;" edge="1" parent="1">
          <mxGeometry width="50" height="50" relative="1" as="geometry">
            <mxPoint x="2470" y="2817.94" as="sourcePoint" />
            <mxPoint x="2500" y="2817.94" as="targetPoint" />
            <Array as="points">
              <mxPoint x="2500" y="2817.94" />
            </Array>
          </mxGeometry>
        </mxCell>
        <mxCell id="n-b-IPJBRChd2AI7p8b2-267" value="" style="edgeStyle=orthogonalEdgeStyle;rounded=0;orthogonalLoop=1;jettySize=auto;html=1;endArrow=none;endFill=0;" edge="1" parent="1">
          <mxGeometry relative="1" as="geometry">
            <mxPoint x="2484" y="2818" as="targetPoint" />
            <mxPoint x="2487" y="3010" as="sourcePoint" />
            <Array as="points">
              <mxPoint x="2484" y="2828" />
              <mxPoint x="2484" y="2828" />
            </Array>
          </mxGeometry>
        </mxCell>
        <mxCell id="n-b-IPJBRChd2AI7p8b2-268" style="edgeStyle=orthogonalEdgeStyle;rounded=0;orthogonalLoop=1;jettySize=auto;html=1;exitX=1;exitY=0;exitDx=0;exitDy=0;exitPerimeter=0;endArrow=none;endFill=0;" edge="1" parent="1" source="n-b-IPJBRChd2AI7p8b2-269">
          <mxGeometry relative="1" as="geometry">
            <mxPoint x="2681.090909090909" y="2610" as="targetPoint" />
          </mxGeometry>
        </mxCell>
        <mxCell id="n-b-IPJBRChd2AI7p8b2-269" value="" style="verticalLabelPosition=bottom;shadow=0;dashed=0;align=center;html=1;verticalAlign=top;shape=mxgraph.electrical.transistors.pigbt;" vertex="1" parent="1">
          <mxGeometry x="2617" y="2650" width="64" height="100" as="geometry" />
        </mxCell>
        <mxCell id="n-b-IPJBRChd2AI7p8b2-270" style="edgeStyle=orthogonalEdgeStyle;rounded=0;orthogonalLoop=1;jettySize=auto;html=1;exitX=1;exitY=0;exitDx=0;exitDy=0;exitPerimeter=0;endArrow=none;endFill=0;" edge="1" parent="1">
          <mxGeometry relative="1" as="geometry">
            <mxPoint x="2796.090909090909" y="2610" as="targetPoint" />
            <mxPoint x="2795.8181818181815" y="2650" as="sourcePoint" />
          </mxGeometry>
        </mxCell>
        <mxCell id="n-b-IPJBRChd2AI7p8b2-271" value="" style="verticalLabelPosition=bottom;shadow=0;dashed=0;align=center;html=1;verticalAlign=top;shape=mxgraph.electrical.transistors.pigbt;" vertex="1" parent="1">
          <mxGeometry x="2732" y="2650" width="64" height="100" as="geometry" />
        </mxCell>
        <mxCell id="n-b-IPJBRChd2AI7p8b2-272" style="edgeStyle=orthogonalEdgeStyle;rounded=0;orthogonalLoop=1;jettySize=auto;html=1;exitX=1;exitY=1;exitDx=0;exitDy=0;exitPerimeter=0;endArrow=none;endFill=0;" edge="1" parent="1" source="n-b-IPJBRChd2AI7p8b2-273">
          <mxGeometry relative="1" as="geometry">
            <mxPoint x="2681.090909090909" y="3010" as="targetPoint" />
          </mxGeometry>
        </mxCell>
        <mxCell id="n-b-IPJBRChd2AI7p8b2-273" value="" style="verticalLabelPosition=bottom;shadow=0;dashed=0;align=center;html=1;verticalAlign=top;shape=mxgraph.electrical.transistors.pigbt;" vertex="1" parent="1">
          <mxGeometry x="2617" y="2840" width="64" height="100" as="geometry" />
        </mxCell>
        <mxCell id="n-b-IPJBRChd2AI7p8b2-274" style="edgeStyle=orthogonalEdgeStyle;rounded=0;orthogonalLoop=1;jettySize=auto;html=1;exitX=1;exitY=1;exitDx=0;exitDy=0;exitPerimeter=0;endArrow=none;endFill=0;" edge="1" parent="1" source="n-b-IPJBRChd2AI7p8b2-275">
          <mxGeometry relative="1" as="geometry">
            <mxPoint x="2791.090909090909" y="3010" as="targetPoint" />
            <Array as="points">
              <mxPoint x="2796" y="3010" />
            </Array>
          </mxGeometry>
        </mxCell>
        <mxCell id="n-b-IPJBRChd2AI7p8b2-275" value="" style="verticalLabelPosition=bottom;shadow=0;dashed=0;align=center;html=1;verticalAlign=top;shape=mxgraph.electrical.transistors.pigbt;" vertex="1" parent="1">
          <mxGeometry x="2732" y="2840" width="64" height="100" as="geometry" />
        </mxCell>
        <mxCell id="n-b-IPJBRChd2AI7p8b2-276" value="" style="endArrow=none;html=1;rounded=0;" edge="1" parent="1">
          <mxGeometry width="50" height="50" relative="1" as="geometry">
            <mxPoint x="2397" y="3010" as="sourcePoint" />
            <mxPoint x="2792" y="3010" as="targetPoint" />
          </mxGeometry>
        </mxCell>
        <mxCell id="n-b-IPJBRChd2AI7p8b2-277" style="edgeStyle=orthogonalEdgeStyle;rounded=0;orthogonalLoop=1;jettySize=auto;html=1;exitX=1;exitY=1;exitDx=0;exitDy=0;exitPerimeter=0;entryX=1;entryY=0;entryDx=0;entryDy=0;entryPerimeter=0;endArrow=none;endFill=0;" edge="1" parent="1" source="n-b-IPJBRChd2AI7p8b2-271" target="n-b-IPJBRChd2AI7p8b2-275">
          <mxGeometry relative="1" as="geometry">
            <Array as="points">
              <mxPoint x="2796" y="2840" />
            </Array>
          </mxGeometry>
        </mxCell>
        <mxCell id="n-b-IPJBRChd2AI7p8b2-278" style="edgeStyle=orthogonalEdgeStyle;rounded=0;orthogonalLoop=1;jettySize=auto;html=1;exitX=1;exitY=1;exitDx=0;exitDy=0;exitPerimeter=0;entryX=1;entryY=0;entryDx=0;entryDy=0;entryPerimeter=0;endArrow=none;endFill=0;" edge="1" parent="1" source="n-b-IPJBRChd2AI7p8b2-269" target="n-b-IPJBRChd2AI7p8b2-273">
          <mxGeometry relative="1" as="geometry" />
        </mxCell>
        <mxCell id="n-b-IPJBRChd2AI7p8b2-279" style="edgeStyle=orthogonalEdgeStyle;rounded=0;orthogonalLoop=1;jettySize=auto;html=1;exitX=0;exitY=0.645;exitDx=0;exitDy=0;exitPerimeter=0;endArrow=none;endFill=0;" edge="1" parent="1">
          <mxGeometry relative="1" as="geometry">
            <mxPoint x="2566" y="2790" as="targetPoint" />
            <mxPoint x="2866" y="2765.0299999999997" as="sourcePoint" />
          </mxGeometry>
        </mxCell>
        <mxCell id="n-b-IPJBRChd2AI7p8b2-280" style="edgeStyle=orthogonalEdgeStyle;rounded=0;orthogonalLoop=1;jettySize=auto;html=1;exitX=1;exitY=0.645;exitDx=0;exitDy=0;exitPerimeter=0;endArrow=none;endFill=0;entryX=0;entryY=0.645;entryDx=0;entryDy=0;entryPerimeter=0;" edge="1" parent="1" source="n-b-IPJBRChd2AI7p8b2-281" target="n-b-IPJBRChd2AI7p8b2-284">
          <mxGeometry relative="1" as="geometry">
            <Array as="points">
              <mxPoint x="2990" y="2765" />
            </Array>
          </mxGeometry>
        </mxCell>
        <mxCell id="n-b-IPJBRChd2AI7p8b2-281" value="" style="pointerEvents=1;verticalLabelPosition=bottom;shadow=0;dashed=0;align=center;html=1;verticalAlign=top;shape=mxgraph.electrical.inductors.inductor_5;" vertex="1" parent="1">
          <mxGeometry x="2857" y="2756" width="93" height="14" as="geometry" />
        </mxCell>
        <mxCell id="n-b-IPJBRChd2AI7p8b2-282" value="" style="edgeStyle=none;orthogonalLoop=1;jettySize=auto;html=1;rounded=0;endArrow=none;endFill=0;entryX=0;entryY=0.645;entryDx=0;entryDy=0;entryPerimeter=0;" edge="1" parent="1" target="n-b-IPJBRChd2AI7p8b2-300">
          <mxGeometry width="100" relative="1" as="geometry">
            <mxPoint x="2795" y="2830" as="sourcePoint" />
            <mxPoint x="2831" y="2830" as="targetPoint" />
            <Array as="points" />
          </mxGeometry>
        </mxCell>
        <mxCell id="n-b-IPJBRChd2AI7p8b2-283" value="&lt;font style=&quot;font-size: 23px;&quot;&gt;+&lt;/font&gt;&lt;div style=&quot;font-size: 23px;&quot;&gt;&lt;font style=&quot;font-size: 23px;&quot;&gt;-&lt;/font&gt;&lt;/div&gt;" style="ellipse;whiteSpace=wrap;html=1;aspect=fixed;" vertex="1" parent="1">
          <mxGeometry x="2350" y="2771" width="90" height="90" as="geometry" />
        </mxCell>
        <mxCell id="n-b-IPJBRChd2AI7p8b2-284" value="" style="pointerEvents=1;verticalLabelPosition=bottom;shadow=0;dashed=0;align=center;html=1;verticalAlign=top;shape=mxgraph.electrical.inductors.inductor_5;" vertex="1" parent="1">
          <mxGeometry x="3000" y="2759" width="57" height="10" as="geometry" />
        </mxCell>
        <mxCell id="n-b-IPJBRChd2AI7p8b2-287" style="edgeStyle=orthogonalEdgeStyle;rounded=0;orthogonalLoop=1;jettySize=auto;html=1;exitX=1;exitY=0;exitDx=0;exitDy=0;exitPerimeter=0;endArrow=none;endFill=0;" edge="1" parent="1" source="n-b-IPJBRChd2AI7p8b2-288">
          <mxGeometry relative="1" as="geometry">
            <mxPoint x="2566.680909090909" y="2610" as="targetPoint" />
          </mxGeometry>
        </mxCell>
        <mxCell id="n-b-IPJBRChd2AI7p8b2-288" value="" style="verticalLabelPosition=bottom;shadow=0;dashed=0;align=center;html=1;verticalAlign=top;shape=mxgraph.electrical.transistors.pigbt;" vertex="1" parent="1">
          <mxGeometry x="2502.59" y="2650" width="64" height="100" as="geometry" />
        </mxCell>
        <mxCell id="n-b-IPJBRChd2AI7p8b2-289" style="edgeStyle=orthogonalEdgeStyle;rounded=0;orthogonalLoop=1;jettySize=auto;html=1;exitX=1;exitY=1;exitDx=0;exitDy=0;exitPerimeter=0;endArrow=none;endFill=0;" edge="1" parent="1" source="n-b-IPJBRChd2AI7p8b2-290">
          <mxGeometry relative="1" as="geometry">
            <mxPoint x="2566.680909090909" y="3010" as="targetPoint" />
          </mxGeometry>
        </mxCell>
        <mxCell id="n-b-IPJBRChd2AI7p8b2-290" value="" style="verticalLabelPosition=bottom;shadow=0;dashed=0;align=center;html=1;verticalAlign=top;shape=mxgraph.electrical.transistors.pigbt;" vertex="1" parent="1">
          <mxGeometry x="2502.59" y="2840" width="64" height="100" as="geometry" />
        </mxCell>
        <mxCell id="n-b-IPJBRChd2AI7p8b2-291" style="edgeStyle=orthogonalEdgeStyle;rounded=0;orthogonalLoop=1;jettySize=auto;html=1;exitX=1;exitY=1;exitDx=0;exitDy=0;exitPerimeter=0;entryX=1;entryY=0;entryDx=0;entryDy=0;entryPerimeter=0;endArrow=none;endFill=0;" edge="1" parent="1" source="n-b-IPJBRChd2AI7p8b2-288" target="n-b-IPJBRChd2AI7p8b2-290">
          <mxGeometry relative="1" as="geometry" />
        </mxCell>
        <mxCell id="n-b-IPJBRChd2AI7p8b2-292" value="" style="verticalLabelPosition=bottom;shadow=0;dashed=0;align=center;html=1;verticalAlign=top;shape=mxgraph.electrical.logic_gates.inverting_contact;" vertex="1" parent="1">
          <mxGeometry x="2640" y="2740" width="10" height="10" as="geometry" />
        </mxCell>
        <mxCell id="n-b-IPJBRChd2AI7p8b2-293" value="" style="shape=waypoint;sketch=0;size=6;pointerEvents=1;points=[];fillColor=none;resizable=0;rotatable=0;perimeter=centerPerimeter;snapToPoint=1;" vertex="1" parent="1">
          <mxGeometry x="2557" y="2755" width="20" height="20" as="geometry" />
        </mxCell>
        <mxCell id="n-b-IPJBRChd2AI7p8b2-294" value="" style="shape=waypoint;sketch=0;size=6;pointerEvents=1;points=[];fillColor=none;resizable=0;rotatable=0;perimeter=centerPerimeter;snapToPoint=1;" vertex="1" parent="1">
          <mxGeometry x="2671" y="2808" width="20" height="20" as="geometry" />
        </mxCell>
        <mxCell id="n-b-IPJBRChd2AI7p8b2-295" value="" style="shape=waypoint;sketch=0;size=6;pointerEvents=1;points=[];fillColor=none;resizable=0;rotatable=0;perimeter=centerPerimeter;snapToPoint=1;" vertex="1" parent="1">
          <mxGeometry x="2786" y="2820" width="20" height="20" as="geometry" />
        </mxCell>
        <mxCell id="n-b-IPJBRChd2AI7p8b2-296" value="" style="edgeStyle=orthogonalEdgeStyle;rounded=0;orthogonalLoop=1;jettySize=auto;html=1;endArrow=none;endFill=0;" edge="1" parent="1">
          <mxGeometry relative="1" as="geometry">
            <mxPoint x="2970" y="2816.9999999999995" as="sourcePoint" />
            <mxPoint x="3000.5" y="2817.37037037037" as="targetPoint" />
          </mxGeometry>
        </mxCell>
        <mxCell id="n-b-IPJBRChd2AI7p8b2-297" value="" style="pointerEvents=1;verticalLabelPosition=bottom;shadow=0;dashed=0;align=center;html=1;verticalAlign=top;shape=mxgraph.electrical.inductors.inductor_5;" vertex="1" parent="1">
          <mxGeometry x="2870" y="2808" width="100" height="14" as="geometry" />
        </mxCell>
        <mxCell id="n-b-IPJBRChd2AI7p8b2-298" value="" style="pointerEvents=1;verticalLabelPosition=bottom;shadow=0;dashed=0;align=center;html=1;verticalAlign=top;shape=mxgraph.electrical.inductors.inductor_5;" vertex="1" parent="1">
          <mxGeometry x="3000.5" y="2810.67" width="56" height="9.33" as="geometry" />
        </mxCell>
        <mxCell id="n-b-IPJBRChd2AI7p8b2-299" value="" style="edgeStyle=orthogonalEdgeStyle;rounded=0;orthogonalLoop=1;jettySize=auto;html=1;endArrow=none;endFill=0;entryX=0.045;entryY=0.627;entryDx=0;entryDy=0;entryPerimeter=0;" edge="1" parent="1" target="n-b-IPJBRChd2AI7p8b2-301">
          <mxGeometry relative="1" as="geometry">
            <mxPoint x="2956" y="2870.037037037037" as="sourcePoint" />
            <mxPoint x="3004.0000000000005" y="2868.037037037037" as="targetPoint" />
            <Array as="points">
              <mxPoint x="3004" y="2870" />
            </Array>
          </mxGeometry>
        </mxCell>
        <mxCell id="n-b-IPJBRChd2AI7p8b2-300" value="" style="pointerEvents=1;verticalLabelPosition=bottom;shadow=0;dashed=0;align=center;html=1;verticalAlign=top;shape=mxgraph.electrical.inductors.inductor_5;" vertex="1" parent="1">
          <mxGeometry x="2856" y="2861" width="100" height="14" as="geometry" />
        </mxCell>
        <mxCell id="n-b-IPJBRChd2AI7p8b2-301" value="" style="pointerEvents=1;verticalLabelPosition=bottom;shadow=0;dashed=0;align=center;html=1;verticalAlign=top;shape=mxgraph.electrical.inductors.inductor_5;" vertex="1" parent="1">
          <mxGeometry x="3005" y="2863" width="52" height="10" as="geometry" />
        </mxCell>
        <mxCell id="n-b-IPJBRChd2AI7p8b2-304" style="edgeStyle=orthogonalEdgeStyle;rounded=0;orthogonalLoop=1;jettySize=auto;html=1;exitX=0;exitY=0.645;exitDx=0;exitDy=0;exitPerimeter=0;entryX=0.988;entryY=0.418;entryDx=0;entryDy=0;entryPerimeter=0;endArrow=none;endFill=0;" edge="1" parent="1">
          <mxGeometry relative="1" as="geometry">
            <mxPoint x="2870" y="2817.5299999999997" as="sourcePoint" />
            <mxPoint x="2681" y="2818.5" as="targetPoint" />
            <Array as="points">
              <mxPoint x="2780" y="2818.5" />
            </Array>
          </mxGeometry>
        </mxCell>
        <mxCell id="n-b-IPJBRChd2AI7p8b2-305" style="edgeStyle=orthogonalEdgeStyle;rounded=0;orthogonalLoop=1;jettySize=auto;html=1;exitX=0.5;exitY=1;exitDx=0;exitDy=0;endArrow=none;endFill=0;" edge="1" parent="1" source="n-b-IPJBRChd2AI7p8b2-306">
          <mxGeometry relative="1" as="geometry">
            <mxPoint x="2955.3333333333335" y="2920" as="targetPoint" />
          </mxGeometry>
        </mxCell>
        <mxCell id="n-b-IPJBRChd2AI7p8b2-306" value="" style="verticalLabelPosition=bottom;shadow=0;dashed=0;align=center;html=1;verticalAlign=top;shape=mxgraph.electrical.transmission.testPoint;" vertex="1" parent="1">
          <mxGeometry x="2950" y="2759" width="10" height="40" as="geometry" />
        </mxCell>
        <mxCell id="n-b-IPJBRChd2AI7p8b2-307" value="" style="verticalLabelPosition=bottom;shadow=0;dashed=0;align=center;html=1;verticalAlign=top;shape=mxgraph.electrical.transmission.testPoint;" vertex="1" parent="1">
          <mxGeometry x="2980" y="2810.67" width="10" height="109.33" as="geometry" />
        </mxCell>
        <mxCell id="n-b-IPJBRChd2AI7p8b2-308" value="" style="verticalLabelPosition=bottom;shadow=0;dashed=0;align=center;html=1;verticalAlign=top;shape=mxgraph.electrical.transmission.testPoint;" vertex="1" parent="1">
          <mxGeometry x="3000.5" y="2865" width="10" height="55" as="geometry" />
        </mxCell>
        <mxCell id="n-b-IPJBRChd2AI7p8b2-309" style="edgeStyle=orthogonalEdgeStyle;rounded=0;orthogonalLoop=1;jettySize=auto;html=1;exitX=1;exitY=0.645;exitDx=0;exitDy=0;exitPerimeter=0;endArrow=none;endFill=0;" edge="1" parent="1">
          <mxGeometry relative="1" as="geometry">
            <mxPoint x="2955" y="2918.9700000000003" as="targetPoint" />
            <mxPoint x="2955" y="2884" as="sourcePoint" />
          </mxGeometry>
        </mxCell>
        <mxCell id="n-b-IPJBRChd2AI7p8b2-310" value="" style="endArrow=none;html=1;rounded=0;" edge="1" parent="1">
          <mxGeometry width="50" height="50" relative="1" as="geometry">
            <mxPoint x="2941" y="2919.4700000000003" as="sourcePoint" />
            <mxPoint x="2971" y="2919.4700000000003" as="targetPoint" />
            <Array as="points">
              <mxPoint x="2971" y="2919.4700000000003" />
            </Array>
          </mxGeometry>
        </mxCell>
        <mxCell id="n-b-IPJBRChd2AI7p8b2-311" value="" style="endArrow=none;html=1;rounded=0;" edge="1" parent="1">
          <mxGeometry width="50" height="50" relative="1" as="geometry">
            <mxPoint x="2941" y="2928.41" as="sourcePoint" />
            <mxPoint x="2971" y="2928.41" as="targetPoint" />
            <Array as="points">
              <mxPoint x="2971" y="2928.41" />
            </Array>
          </mxGeometry>
        </mxCell>
        <mxCell id="n-b-IPJBRChd2AI7p8b2-312" style="edgeStyle=orthogonalEdgeStyle;rounded=0;orthogonalLoop=1;jettySize=auto;html=1;exitX=1;exitY=0.645;exitDx=0;exitDy=0;exitPerimeter=0;endArrow=none;endFill=0;" edge="1" parent="1">
          <mxGeometry relative="1" as="geometry">
            <mxPoint x="2985" y="2943.9700000000003" as="targetPoint" />
            <mxPoint x="2985" y="2909" as="sourcePoint" />
          </mxGeometry>
        </mxCell>
        <mxCell id="n-b-IPJBRChd2AI7p8b2-313" value="" style="endArrow=none;html=1;rounded=0;" edge="1" parent="1">
          <mxGeometry width="50" height="50" relative="1" as="geometry">
            <mxPoint x="2971" y="2944.4700000000003" as="sourcePoint" />
            <mxPoint x="3001" y="2944.4700000000003" as="targetPoint" />
            <Array as="points">
              <mxPoint x="3001" y="2944.4700000000003" />
            </Array>
          </mxGeometry>
        </mxCell>
        <mxCell id="n-b-IPJBRChd2AI7p8b2-314" value="" style="endArrow=none;html=1;rounded=0;" edge="1" parent="1">
          <mxGeometry width="50" height="50" relative="1" as="geometry">
            <mxPoint x="2971" y="2953.41" as="sourcePoint" />
            <mxPoint x="3001" y="2953.41" as="targetPoint" />
            <Array as="points">
              <mxPoint x="3001" y="2953.41" />
            </Array>
          </mxGeometry>
        </mxCell>
        <mxCell id="n-b-IPJBRChd2AI7p8b2-315" style="edgeStyle=orthogonalEdgeStyle;rounded=0;orthogonalLoop=1;jettySize=auto;html=1;exitX=0.5;exitY=1;exitDx=0;exitDy=0;endArrow=none;endFill=0;" edge="1" parent="1" source="n-b-IPJBRChd2AI7p8b2-308">
          <mxGeometry relative="1" as="geometry">
            <mxPoint x="3005" y="2975.9700000000003" as="targetPoint" />
            <mxPoint x="3005" y="2941" as="sourcePoint" />
          </mxGeometry>
        </mxCell>
        <mxCell id="n-b-IPJBRChd2AI7p8b2-316" value="" style="endArrow=none;html=1;rounded=0;" edge="1" parent="1">
          <mxGeometry width="50" height="50" relative="1" as="geometry">
            <mxPoint x="2991" y="2976.4700000000003" as="sourcePoint" />
            <mxPoint x="3021" y="2976.4700000000003" as="targetPoint" />
            <Array as="points">
              <mxPoint x="3021" y="2976.4700000000003" />
            </Array>
          </mxGeometry>
        </mxCell>
        <mxCell id="n-b-IPJBRChd2AI7p8b2-317" value="" style="endArrow=none;html=1;rounded=0;" edge="1" parent="1">
          <mxGeometry width="50" height="50" relative="1" as="geometry">
            <mxPoint x="2991" y="2985.41" as="sourcePoint" />
            <mxPoint x="3021" y="2985.41" as="targetPoint" />
            <Array as="points">
              <mxPoint x="3021" y="2985.41" />
            </Array>
          </mxGeometry>
        </mxCell>
        <mxCell id="n-b-IPJBRChd2AI7p8b2-318" style="edgeStyle=orthogonalEdgeStyle;rounded=0;orthogonalLoop=1;jettySize=auto;html=1;endArrow=none;endFill=0;" edge="1" parent="1">
          <mxGeometry relative="1" as="geometry">
            <mxPoint x="2955" y="3040" as="targetPoint" />
            <mxPoint x="2955" y="2929" as="sourcePoint" />
          </mxGeometry>
        </mxCell>
        <mxCell id="n-b-IPJBRChd2AI7p8b2-319" style="edgeStyle=orthogonalEdgeStyle;rounded=0;orthogonalLoop=1;jettySize=auto;html=1;endArrow=none;endFill=0;" edge="1" parent="1">
          <mxGeometry relative="1" as="geometry">
            <mxPoint x="2985" y="3040" as="targetPoint" />
            <mxPoint x="2985" y="2954" as="sourcePoint" />
          </mxGeometry>
        </mxCell>
        <mxCell id="n-b-IPJBRChd2AI7p8b2-320" style="edgeStyle=orthogonalEdgeStyle;rounded=0;orthogonalLoop=1;jettySize=auto;html=1;endArrow=none;endFill=0;" edge="1" parent="1">
          <mxGeometry relative="1" as="geometry">
            <mxPoint x="3005" y="3039.9700000000003" as="targetPoint" />
            <mxPoint x="3005" y="2985" as="sourcePoint" />
          </mxGeometry>
        </mxCell>
        <mxCell id="n-b-IPJBRChd2AI7p8b2-321" value="" style="endArrow=none;html=1;strokeWidth=1;rounded=0;" edge="1" parent="1">
          <mxGeometry width="100" relative="1" as="geometry">
            <mxPoint x="2955" y="3040" as="sourcePoint" />
            <mxPoint x="3005" y="3040" as="targetPoint" />
          </mxGeometry>
        </mxCell>
        <mxCell id="n-b-IPJBRChd2AI7p8b2-333" value="" style="edgeStyle=orthogonalEdgeStyle;rounded=0;orthogonalLoop=1;jettySize=auto;html=1;endArrow=none;endFill=0;" edge="1" parent="1" source="n-b-IPJBRChd2AI7p8b2-324" target="n-b-IPJBRChd2AI7p8b2-332">
          <mxGeometry relative="1" as="geometry" />
        </mxCell>
        <mxCell id="n-b-IPJBRChd2AI7p8b2-324" value="" style="pointerEvents=1;verticalLabelPosition=bottom;shadow=0;dashed=0;align=center;html=1;verticalAlign=top;shape=mxgraph.electrical.resistors.resistor_2;" vertex="1" parent="1">
          <mxGeometry x="3090" y="2760" width="60" height="10" as="geometry" />
        </mxCell>
        <mxCell id="n-b-IPJBRChd2AI7p8b2-325" style="edgeStyle=orthogonalEdgeStyle;rounded=0;orthogonalLoop=1;jettySize=auto;html=1;exitX=0;exitY=0.5;exitDx=0;exitDy=0;exitPerimeter=0;entryX=1;entryY=0.645;entryDx=0;entryDy=0;entryPerimeter=0;endArrow=none;endFill=0;" edge="1" parent="1" source="n-b-IPJBRChd2AI7p8b2-324" target="n-b-IPJBRChd2AI7p8b2-284">
          <mxGeometry relative="1" as="geometry" />
        </mxCell>
        <mxCell id="n-b-IPJBRChd2AI7p8b2-335" value="" style="edgeStyle=orthogonalEdgeStyle;rounded=0;orthogonalLoop=1;jettySize=auto;html=1;endArrow=none;endFill=0;" edge="1" parent="1" source="n-b-IPJBRChd2AI7p8b2-327" target="n-b-IPJBRChd2AI7p8b2-334">
          <mxGeometry relative="1" as="geometry" />
        </mxCell>
        <mxCell id="n-b-IPJBRChd2AI7p8b2-327" value="" style="pointerEvents=1;verticalLabelPosition=bottom;shadow=0;dashed=0;align=center;html=1;verticalAlign=top;shape=mxgraph.electrical.resistors.resistor_2;" vertex="1" parent="1">
          <mxGeometry x="3088" y="2812" width="60" height="10" as="geometry" />
        </mxCell>
        <mxCell id="n-b-IPJBRChd2AI7p8b2-328" style="edgeStyle=orthogonalEdgeStyle;rounded=0;orthogonalLoop=1;jettySize=auto;html=1;exitX=0;exitY=0.5;exitDx=0;exitDy=0;exitPerimeter=0;entryX=1;entryY=0.645;entryDx=0;entryDy=0;entryPerimeter=0;endArrow=none;endFill=0;" edge="1" parent="1" source="n-b-IPJBRChd2AI7p8b2-327">
          <mxGeometry relative="1" as="geometry">
            <mxPoint x="3055" y="2817" as="targetPoint" />
          </mxGeometry>
        </mxCell>
        <mxCell id="n-b-IPJBRChd2AI7p8b2-329" value="" style="pointerEvents=1;verticalLabelPosition=bottom;shadow=0;dashed=0;align=center;html=1;verticalAlign=top;shape=mxgraph.electrical.resistors.resistor_2;" vertex="1" parent="1">
          <mxGeometry x="3088" y="2864" width="60" height="10" as="geometry" />
        </mxCell>
        <mxCell id="n-b-IPJBRChd2AI7p8b2-330" style="edgeStyle=orthogonalEdgeStyle;rounded=0;orthogonalLoop=1;jettySize=auto;html=1;exitX=0;exitY=0.5;exitDx=0;exitDy=0;exitPerimeter=0;entryX=1;entryY=0.645;entryDx=0;entryDy=0;entryPerimeter=0;endArrow=none;endFill=0;" edge="1" parent="1" source="n-b-IPJBRChd2AI7p8b2-329">
          <mxGeometry relative="1" as="geometry">
            <mxPoint x="3057" y="2870" as="targetPoint" />
          </mxGeometry>
        </mxCell>
        <mxCell id="n-b-IPJBRChd2AI7p8b2-332" value="" style="shape=waypoint;sketch=0;size=6;pointerEvents=1;points=[];fillColor=default;resizable=0;rotatable=0;perimeter=centerPerimeter;snapToPoint=1;verticalAlign=top;shadow=0;dashed=0;" vertex="1" parent="1">
          <mxGeometry x="3202" y="2755" width="20" height="20" as="geometry" />
        </mxCell>
        <mxCell id="n-b-IPJBRChd2AI7p8b2-334" value="" style="shape=waypoint;sketch=0;size=6;pointerEvents=1;points=[];fillColor=default;resizable=0;rotatable=0;perimeter=centerPerimeter;snapToPoint=1;verticalAlign=top;shadow=0;dashed=0;" vertex="1" parent="1">
          <mxGeometry x="3200" y="2807" width="20" height="20" as="geometry" />
        </mxCell>
        <mxCell id="n-b-IPJBRChd2AI7p8b2-338" value="" style="edgeStyle=orthogonalEdgeStyle;rounded=0;orthogonalLoop=1;jettySize=auto;html=1;endArrow=none;endFill=0;" edge="1" parent="1">
          <mxGeometry relative="1" as="geometry">
            <mxPoint x="3148" y="2869" as="sourcePoint" />
            <mxPoint x="3210" y="2869" as="targetPoint" />
          </mxGeometry>
        </mxCell>
        <mxCell id="n-b-IPJBRChd2AI7p8b2-339" value="" style="shape=waypoint;sketch=0;size=6;pointerEvents=1;points=[];fillColor=default;resizable=0;rotatable=0;perimeter=centerPerimeter;snapToPoint=1;verticalAlign=top;shadow=0;dashed=0;" vertex="1" parent="1">
          <mxGeometry x="3201" y="2859" width="20" height="20" as="geometry" />
        </mxCell>
        <mxCell id="n-b-IPJBRChd2AI7p8b2-340" value="" style="endArrow=none;html=1;rounded=0;entryX=0.731;entryY=0.606;entryDx=0;entryDy=0;entryPerimeter=0;exitX=0.438;exitY=0.688;exitDx=0;exitDy=0;exitPerimeter=0;" edge="1" parent="1" source="n-b-IPJBRChd2AI7p8b2-339" target="n-b-IPJBRChd2AI7p8b2-332">
          <mxGeometry width="50" height="50" relative="1" as="geometry">
            <mxPoint x="3220" y="2849" as="sourcePoint" />
            <mxPoint x="3270" y="2799" as="targetPoint" />
          </mxGeometry>
        </mxCell>
        <mxCell id="n-b-IPJBRChd2AI7p8b2-341" value="&lt;b style=&quot;font-size: 14px;&quot;&gt;&lt;font style=&quot;font-size: 14px;&quot;&gt;DC Voltage&amp;nbsp;&lt;/font&gt;&lt;/b&gt;&lt;div style=&quot;font-size: 14px;&quot;&gt;&lt;b style=&quot;&quot;&gt;&lt;font style=&quot;font-size: 14px;&quot;&gt;Source&lt;/font&gt;&lt;/b&gt;&lt;/div&gt;" style="text;html=1;align=center;verticalAlign=middle;resizable=0;points=[];autosize=1;strokeColor=none;fillColor=none;" vertex="1" parent="1">
          <mxGeometry x="435" y="500" width="100" height="50" as="geometry" />
        </mxCell>
        <mxCell id="n-b-IPJBRChd2AI7p8b2-342" value="&lt;b&gt;DC Link&amp;nbsp;&lt;/b&gt;&lt;div&gt;&lt;b&gt;Capacitor&lt;/b&gt;&lt;/div&gt;" style="text;html=1;align=center;verticalAlign=middle;resizable=0;points=[];autosize=1;strokeColor=none;fillColor=none;" vertex="1" parent="1">
          <mxGeometry x="645" y="500" width="80" height="40" as="geometry" />
        </mxCell>
        <mxCell id="n-b-IPJBRChd2AI7p8b2-343" value="&lt;b&gt;S1&lt;/b&gt;" style="text;html=1;align=center;verticalAlign=middle;resizable=0;points=[];autosize=1;strokeColor=none;fillColor=none;" vertex="1" parent="1">
          <mxGeometry x="790" y="348" width="40" height="30" as="geometry" />
        </mxCell>
        <mxCell id="n-b-IPJBRChd2AI7p8b2-344" value="&lt;b&gt;S3&lt;/b&gt;" style="text;html=1;align=center;verticalAlign=middle;resizable=0;points=[];autosize=1;strokeColor=none;fillColor=none;" vertex="1" parent="1">
          <mxGeometry x="990" y="348" width="40" height="30" as="geometry" />
        </mxCell>
        <mxCell id="n-b-IPJBRChd2AI7p8b2-345" value="&lt;b&gt;S2&lt;/b&gt;" style="text;html=1;align=center;verticalAlign=middle;resizable=0;points=[];autosize=1;strokeColor=none;fillColor=none;" vertex="1" parent="1">
          <mxGeometry x="990" y="610" width="40" height="30" as="geometry" />
        </mxCell>
        <mxCell id="n-b-IPJBRChd2AI7p8b2-347" value="&lt;b&gt;S4&lt;/b&gt;" style="text;html=1;align=center;verticalAlign=middle;resizable=0;points=[];autosize=1;strokeColor=none;fillColor=none;" vertex="1" parent="1">
          <mxGeometry x="800" y="640" width="40" height="30" as="geometry" />
        </mxCell>
        <mxCell id="n-b-IPJBRChd2AI7p8b2-348" value="&lt;b&gt;LC Filter&lt;/b&gt;" style="text;html=1;align=center;verticalAlign=middle;resizable=0;points=[];autosize=1;strokeColor=none;fillColor=none;" vertex="1" parent="1">
          <mxGeometry x="1100" y="430" width="70" height="30" as="geometry" />
        </mxCell>
        <mxCell id="n-b-IPJBRChd2AI7p8b2-349" value="&lt;b&gt;Load&lt;/b&gt;" style="text;html=1;align=center;verticalAlign=middle;resizable=0;points=[];autosize=1;strokeColor=none;fillColor=none;" vertex="1" parent="1">
          <mxGeometry x="1220" y="510" width="50" height="30" as="geometry" />
        </mxCell>
        <mxCell id="n-b-IPJBRChd2AI7p8b2-350" value="&lt;b&gt;Sinusoidal Reference&lt;/b&gt;" style="text;html=1;align=center;verticalAlign=middle;resizable=0;points=[];autosize=1;strokeColor=none;fillColor=none;" vertex="1" parent="1">
          <mxGeometry x="1320" y="23" width="150" height="30" as="geometry" />
        </mxCell>
        <mxCell id="n-b-IPJBRChd2AI7p8b2-351" value="&lt;b&gt;DC voltage&amp;nbsp;&lt;/b&gt;&lt;div&gt;&lt;b&gt;Source&lt;/b&gt;&lt;/div&gt;" style="text;html=1;align=center;verticalAlign=middle;resizable=0;points=[];autosize=1;strokeColor=none;fillColor=none;" vertex="1" parent="1">
          <mxGeometry x="1278" y="1080" width="90" height="40" as="geometry" />
        </mxCell>
        <mxCell id="n-b-IPJBRChd2AI7p8b2-352" value="&lt;b&gt;Link&lt;/b&gt;&lt;div&gt;&lt;b&gt;Capacitor&lt;/b&gt;&lt;/div&gt;" style="text;html=1;align=center;verticalAlign=middle;resizable=0;points=[];autosize=1;strokeColor=none;fillColor=none;" vertex="1" parent="1">
          <mxGeometry x="1480" y="1080" width="80" height="40" as="geometry" />
        </mxCell>
        <mxCell id="n-b-IPJBRChd2AI7p8b2-353" value="&lt;b&gt;S1&lt;/b&gt;" style="text;html=1;align=center;verticalAlign=middle;resizable=0;points=[];autosize=1;strokeColor=none;fillColor=none;" vertex="1" parent="1">
          <mxGeometry x="1650" y="920" width="40" height="30" as="geometry" />
        </mxCell>
        <mxCell id="n-b-IPJBRChd2AI7p8b2-354" value="&lt;b&gt;S3&lt;/b&gt;" style="text;html=1;align=center;verticalAlign=middle;resizable=0;points=[];autosize=1;strokeColor=none;fillColor=none;" vertex="1" parent="1">
          <mxGeometry x="1840" y="920" width="40" height="30" as="geometry" />
        </mxCell>
        <mxCell id="n-b-IPJBRChd2AI7p8b2-355" value="&lt;b&gt;S4&lt;/b&gt;" style="text;html=1;align=center;verticalAlign=middle;resizable=0;points=[];autosize=1;strokeColor=none;fillColor=none;" vertex="1" parent="1">
          <mxGeometry x="1640" y="1220" width="40" height="30" as="geometry" />
        </mxCell>
        <mxCell id="n-b-IPJBRChd2AI7p8b2-356" value="&lt;b&gt;S2&lt;/b&gt;" style="text;html=1;align=center;verticalAlign=middle;resizable=0;points=[];autosize=1;strokeColor=none;fillColor=none;" vertex="1" parent="1">
          <mxGeometry x="1840" y="1220" width="40" height="30" as="geometry" />
        </mxCell>
        <mxCell id="n-b-IPJBRChd2AI7p8b2-357" value="&lt;b&gt;&lt;font style=&quot;font-size: 14px;&quot;&gt;LCL filter&lt;/font&gt;&lt;/b&gt;" style="text;html=1;align=center;verticalAlign=middle;resizable=0;points=[];autosize=1;strokeColor=none;fillColor=none;" vertex="1" parent="1">
          <mxGeometry x="1936" y="998" width="80" height="30" as="geometry" />
        </mxCell>
        <mxCell id="n-b-IPJBRChd2AI7p8b2-358" value="&lt;b&gt;AC Voltage&lt;/b&gt;&lt;div&gt;&lt;b&gt;Source/ GRID&lt;/b&gt;&lt;/div&gt;" style="text;html=1;align=center;verticalAlign=middle;resizable=0;points=[];autosize=1;strokeColor=none;fillColor=none;" vertex="1" parent="1">
          <mxGeometry x="2125" y="1087.5" width="100" height="40" as="geometry" />
        </mxCell>
        <mxCell id="n-b-IPJBRChd2AI7p8b2-359" value="&lt;b&gt;S5&lt;/b&gt;" style="text;html=1;align=center;verticalAlign=middle;resizable=0;points=[];autosize=1;strokeColor=none;fillColor=none;" vertex="1" parent="1">
          <mxGeometry x="2506" y="1920" width="40" height="30" as="geometry" />
        </mxCell>
        <mxCell id="n-b-IPJBRChd2AI7p8b2-361" value="&lt;b&gt;S2&lt;/b&gt;" style="text;html=1;align=center;verticalAlign=middle;resizable=0;points=[];autosize=1;strokeColor=none;fillColor=none;" vertex="1" parent="1">
          <mxGeometry x="2506" y="2120" width="40" height="30" as="geometry" />
        </mxCell>
        <mxCell id="n-b-IPJBRChd2AI7p8b2-362" value="&lt;b&gt;S3&lt;/b&gt;" style="text;html=1;align=center;verticalAlign=middle;resizable=0;points=[];autosize=1;strokeColor=none;fillColor=none;" vertex="1" parent="1">
          <mxGeometry x="2381" y="1925" width="40" height="30" as="geometry" />
        </mxCell>
        <mxCell id="n-b-IPJBRChd2AI7p8b2-363" value="&lt;b&gt;S6&lt;/b&gt;" style="text;html=1;align=center;verticalAlign=middle;resizable=0;points=[];autosize=1;strokeColor=none;fillColor=none;" vertex="1" parent="1">
          <mxGeometry x="2380" y="2117.5" width="40" height="30" as="geometry" />
        </mxCell>
        <mxCell id="n-b-IPJBRChd2AI7p8b2-364" value="&lt;b&gt;S1&lt;/b&gt;" style="text;html=1;align=center;verticalAlign=middle;resizable=0;points=[];autosize=1;strokeColor=none;fillColor=none;" vertex="1" parent="1">
          <mxGeometry x="2260" y="1925" width="40" height="30" as="geometry" />
        </mxCell>
        <mxCell id="n-b-IPJBRChd2AI7p8b2-365" value="&lt;b&gt;S4&lt;/b&gt;" style="text;html=1;align=center;verticalAlign=middle;resizable=0;points=[];autosize=1;strokeColor=none;fillColor=none;" vertex="1" parent="1">
          <mxGeometry x="2267" y="2117.5" width="40" height="30" as="geometry" />
        </mxCell>
        <mxCell id="n-b-IPJBRChd2AI7p8b2-366" value="&lt;b style=&quot;font-size: 14px;&quot;&gt;&lt;font style=&quot;font-size: 14px;&quot;&gt;DC Voltage&lt;/font&gt;&lt;/b&gt;&lt;div style=&quot;font-size: 14px;&quot;&gt;&lt;b style=&quot;&quot;&gt;&lt;font style=&quot;font-size: 14px;&quot;&gt;Source&lt;/font&gt;&lt;/b&gt;&lt;/div&gt;" style="text;html=1;align=center;verticalAlign=middle;resizable=0;points=[];autosize=1;strokeColor=none;fillColor=none;" vertex="1" parent="1">
          <mxGeometry x="1960" y="2031" width="100" height="50" as="geometry" />
        </mxCell>
        <mxCell id="n-b-IPJBRChd2AI7p8b2-367" value="&lt;b&gt;DC Link&amp;nbsp;&lt;br&gt;Capacitor&lt;/b&gt;" style="text;html=1;align=center;verticalAlign=middle;resizable=0;points=[];autosize=1;strokeColor=none;fillColor=none;" vertex="1" parent="1">
          <mxGeometry x="2187" y="2060" width="80" height="40" as="geometry" />
        </mxCell>
        <mxCell id="n-b-IPJBRChd2AI7p8b2-368" value="&lt;b&gt;&lt;font style=&quot;font-size: 14px;&quot;&gt;LCL Filter&lt;/font&gt;&lt;/b&gt;" style="text;html=1;align=center;verticalAlign=middle;resizable=0;points=[];autosize=1;strokeColor=none;fillColor=none;" vertex="1" parent="1">
          <mxGeometry x="2620" y="1955" width="90" height="30" as="geometry" />
        </mxCell>
        <mxCell id="n-b-IPJBRChd2AI7p8b2-369" value="&lt;b&gt;3 Phase&amp;nbsp;&lt;/b&gt;&lt;div&gt;&lt;b&gt;Voltage Source/GRID&lt;/b&gt;&lt;/div&gt;" style="text;html=1;align=center;verticalAlign=middle;resizable=0;points=[];autosize=1;strokeColor=none;fillColor=none;" vertex="1" parent="1">
          <mxGeometry x="2945" y="2038" width="140" height="40" as="geometry" />
        </mxCell>
        <mxCell id="n-b-IPJBRChd2AI7p8b2-370" value="&lt;b&gt;S1&lt;/b&gt;" style="text;html=1;align=center;verticalAlign=middle;resizable=0;points=[];autosize=1;strokeColor=none;fillColor=none;" vertex="1" parent="1">
          <mxGeometry x="2566" y="2685" width="40" height="30" as="geometry" />
        </mxCell>
        <mxCell id="n-b-IPJBRChd2AI7p8b2-372" value="&lt;b&gt;S4&lt;/b&gt;" style="text;html=1;align=center;verticalAlign=middle;resizable=0;points=[];autosize=1;strokeColor=none;fillColor=none;" vertex="1" parent="1">
          <mxGeometry x="2560" y="2879" width="40" height="30" as="geometry" />
        </mxCell>
        <mxCell id="n-b-IPJBRChd2AI7p8b2-373" value="&lt;b&gt;S6&lt;/b&gt;" style="text;html=1;align=center;verticalAlign=middle;resizable=0;points=[];autosize=1;strokeColor=none;fillColor=none;" vertex="1" parent="1">
          <mxGeometry x="2675" y="2875" width="40" height="30" as="geometry" />
        </mxCell>
        <mxCell id="n-b-IPJBRChd2AI7p8b2-374" value="&lt;b&gt;S3&lt;/b&gt;" style="text;html=1;align=center;verticalAlign=middle;resizable=0;points=[];autosize=1;strokeColor=none;fillColor=none;" vertex="1" parent="1">
          <mxGeometry x="2675" y="2685" width="40" height="30" as="geometry" />
        </mxCell>
        <mxCell id="n-b-IPJBRChd2AI7p8b2-375" value="&lt;b&gt;S5&lt;/b&gt;" style="text;html=1;align=center;verticalAlign=middle;resizable=0;points=[];autosize=1;strokeColor=none;fillColor=none;" vertex="1" parent="1">
          <mxGeometry x="2796" y="2685" width="40" height="30" as="geometry" />
        </mxCell>
        <mxCell id="n-b-IPJBRChd2AI7p8b2-376" value="&lt;b&gt;S2&lt;/b&gt;" style="text;html=1;align=center;verticalAlign=middle;resizable=0;points=[];autosize=1;strokeColor=none;fillColor=none;" vertex="1" parent="1">
          <mxGeometry x="2796" y="2879" width="40" height="30" as="geometry" />
        </mxCell>
        <mxCell id="n-b-IPJBRChd2AI7p8b2-377" value="&lt;b style=&quot;font-size: 14px;&quot;&gt;&lt;font style=&quot;font-size: 14px;&quot;&gt;DC Voltage&lt;/font&gt;&lt;/b&gt;&lt;div style=&quot;font-size: 14px;&quot;&gt;&lt;b style=&quot;&quot;&gt;&lt;font style=&quot;font-size: 14px;&quot;&gt;Source&lt;/font&gt;&lt;/b&gt;&lt;/div&gt;" style="text;html=1;align=center;verticalAlign=middle;resizable=0;points=[];autosize=1;strokeColor=none;fillColor=none;" vertex="1" parent="1">
          <mxGeometry x="2250" y="2793" width="100" height="50" as="geometry" />
        </mxCell>
        <mxCell id="n-b-IPJBRChd2AI7p8b2-378" value="&lt;b&gt;DC Link&amp;nbsp;&lt;br&gt;Capacitor&lt;/b&gt;" style="text;html=1;align=center;verticalAlign=middle;resizable=0;points=[];autosize=1;strokeColor=none;fillColor=none;" vertex="1" parent="1">
          <mxGeometry x="2477" y="2819" width="80" height="40" as="geometry" />
        </mxCell>
        <mxCell id="n-b-IPJBRChd2AI7p8b2-379" value="&lt;b&gt;&lt;font style=&quot;font-size: 14px;&quot;&gt;LCL Filter&lt;/font&gt;&lt;/b&gt;" style="text;html=1;align=center;verticalAlign=middle;resizable=0;points=[];autosize=1;strokeColor=none;fillColor=none;" vertex="1" parent="1">
          <mxGeometry x="2915" y="2710" width="90" height="30" as="geometry" />
        </mxCell>
        <mxCell id="n-b-IPJBRChd2AI7p8b2-380" value="&lt;b&gt;&lt;font style=&quot;font-size: 14px;&quot;&gt;3 Phase Load&lt;/font&gt;&lt;/b&gt;" style="text;html=1;align=center;verticalAlign=middle;resizable=0;points=[];autosize=1;strokeColor=none;fillColor=none;" vertex="1" parent="1">
          <mxGeometry x="3080" y="2713" width="110" height="30" as="geometry" />
        </mxCell>
      </root>
    </mxGraphModel>
  </diagram>
</mxfile>
